P3
64 64
255
245 245 255 38 34 62 44 28 71 49 24 78 52 23 83 53 24 85 52 28 85 49 35 83 44 43 79 39 52 74 34 60 69 30 68 66 27 74 63 26 78 63 26 79 65 29 77 69 34 73 75 40 67 83 47 60 91 53 53 100 59 47 107 63 43 112 66 41 116 66 41 117 64 45 115 61 50 111 56 58 106 50 66 100 44 74 93 39 81 88 35 86 84 33 88 82 34 88 82 36 85 85 40 80 89 45 73 95 51 65 101 57 57 108 62 50 113 65 45 117 67 42 118 66 41 117 63 44 113 59 49 107 53 55 100 46 62 92 40 69 83 34 75 76 30 78 70 27 80 66 27 79 65 28 75 66 31 68 68 36 60 73 41 51 77 46 43 82 51 35 86 53 29 88 54 25 87 53 25 85 49 26 80 44 31 72 38 36 64 31 43 54
36 36 60 42 31 69 48 26 76 52 24 82 53 24 86 53 27 87 51 33 85 47 40 82 42 49 78 37 58 73 32 66 69 29 73 66 27 78 65 27 80 66 29 79 69 33 76 75 39 70 82 45 64 90 52 57 99 58 50 107 63 45 113 66 43 118 245 245 255 66 45 119 63 50 116 59 56 111 53 64 105 47 73 99 42 80 93 38 86 89 35 89 86 35 90 85 36 88 87 40 84 91 45 77 97 50 70 103 56 62 110 62 54 115 66 48 120 68 45 122 68 43 122 66 45 119 62 49 114 57 55 107 50 61 99 44 69 91 38 75 83 33 80 76 29 82 72 28 82 69 29 79 69 32 73 72 36 66 75 41 57 80 46 48 85 51 40 89 54 33 92 56 29 92 55 27 90 53 28 86 48 31 80 42 36 71 35 42 62 28 49 52
40 33 66 46 28 75 51 25 81 53 24 86 54 27 88 52 31 87 49 38 85 44 46 81 39 56 76 34 64 72 30 72 68 28 77 66 27 80 67 29 81 70 32 78 75 37 74 81 44 67 90 50 60 98 57 54 106 62 48 114 66 45 119 68 44 122 68 45 122 66 49 120 62 55 116 57 63 111 51 71 105 45 79 99 41 86 94 38 90 90 36 92 89 37 91 90 40 88 93 44 82 98 50 75 104 56 67 111 61 59 117 66 52 122 69 48 125 70 46 126 69 46 124 66 49 120 61 55 114 55 61 106 245 245 255 42 75 90 36 80 83 32 84 78 30 84 74 30 82 74 32 78 75 36 71 78 41 63 83 46 54 87 51 45 92 55 38 95 57 32 97 58 30 96 56 29 92 52 32 87 46 36 79 40 42 70 32 49 60 25 55 51
45 30 73 50 26 80 53 25 85 54 26 88 54 30 89 51 36 87 47 44 84 42 53 79 37 62 75 32 70 71 29 76 68 28 80 68 29 82 70 31 80 74 36 77 81 42 71 88 49 64 97 55 57 106 61 51 114 66 47 120 69 45 124 70 46 125 68 49 124 65 54 121 60 62 116 54 70 110 49 78 104 44 85 99 40 91 95 38 94 93 38 94 93 40 91 95 44 86 100 49 80 106 55 72 112 61 64 119 66 57 125 70 51 129 72 48 130 71 48 129 69 50 126 65 55 121 59 61 113 52 68 105 46 75 97 40 81 90 35 85 84 33 87 80 32 86 78 33 82 79 36 76 81 41 68 85 46 59 90 51 51 95 56 43 99 58 36 101 59 33 101 58 31 98 55 33 93 50 37 86 44 42 78 37 49 68 30 55 59 23 60 50
48 28 78 52 26 84 55 26 88 55 29 90 53 34 89 49 41 86 44 50 82 39 59 78 34 68 73 31 75 71 29 80 69 29 83 71 31 82 74 35 79 80 40 74 87 47 68 96 54 61 105 60 55 113 66 50 120 245 245 255 71 46 127 70 49 127 67 54 125 63 60 121 58 68 115 52 77 109 47 84 104 42 91 99 40 95 96 39 96 96 41 94 98 44 90 102 49 84 107 54 77 114 60 69 120 66 61 127 70 55 131 73 51 134 73 50 134 72 51 132 68 55 127 63 61 121 56 67 113 50 75 104 44 81 97 39 86 90 35 89 85 34 89 83 34 86 82 37 81 84 41 74 88 46 65 93 51 56 97 56 48 102 59 41 104 61 36 105 61 34 104 58 34 100 54 37 93 48 42 85 41 49 76 34 55 66 27 61 57 22 65 49
51 27 83 54 26 88 55 28 90 54 32 90 51 39 88 46 47 85 41 56 80 37 65 76 32 73 73 30 79 71 29 83 71 30 83 74 34 81 79 39 77 86 45 71 94 52 65 103 59 58 112 65 52 120 69 49 126 71 47 129 72 49 130 70 53 129 66 59 125 61 67 120 55 75 114 50 83 109 45 90 104 42 95 100 41 97 99 41 97 100 44 94 103 48 89 109 54 82 115 60 74 122 66 66 128 71 59 134 74 55 137 75 52 138 74 53 137 71 56 133 67 61 127 61 67 120 54 74 112 48 81 104 42 87 97 38 90 91 36 91 88 36 90 87 38 85 88 41 79 91 46 71 95 51 62 100 56 53 105 60 45 108 62 40 110 63 37 109 61 36 106 58 38 100 52 43 93 46 48 84 38 55 74 31 61 65 25 66 56 21 69 50
54 26 87 55 27 90 55 31 91 52 37 90 49 45 87 44 54 83 39 63 79 34 71 75 31 78 73 30 82 72 30 84 74 33 83 79 37 80 85 43 75 93 50 68 102 57 61 111 63 55 119 68 51 126 72 49 130 73 49 132 72 52 132 69 58 129 64 65 125 59 73 119 53 82 114 48 89 108 44 95 105 42 99 103 42 99 103 44 97 105 48 93 110 53 86 116 59 79 123 65 71 130 70 64 136 74 58 140 77 55 142 77 54 142 74 56 139 70 61 134 65 67 127 58 74 119 52 81 111 46 87 103 41 92 97 38 94 93 37 93 91 38 90 91 41 84 94 46 76 98 51 67 103 56 58 107 60 50 111 64 44 114 65 40 114 64 38 111 61 40 107 56 43 100 50 48 91 43 55 82 36 61 72 29 66 64 24 70 56 21 71 51
55 27 90 56 29 92 54 34 91 50 42 89 46 51 85 41 60 81 36 69 77 33 76 74 30 82 73 30 85 74 32 85 78 36 82 84 42 77 91 48 71 100 55 65 109 62 58 118 68 53 125 71 50 131 73 50 134 73 52 135 71 57 133 67 64 129 62 72 124 56 80 119 51 88 113 47 95 109 44 99 106 43 101 106 45 100 108 48 97 112 53 91 117 58 83 124 64 76 131 70 68 138 75 62 143 78 58 146 78 56 146 77 58 145 74 61 140 69 67 134 62 73 126 56 81 118 50 87 110 44 92 104 41 95 99 39 96 96 40 93 95 42 89 97 46 81 101 51 73 105 56 64 110 61 55 114 64 48 117 66 43 118 66 41 117 64 41 113 60 44 107 54 49 99 47 55 90 40 61 80 33 67 71 28 71 63 23 73 57 21 73 53
56 28 92 55 32 92 52 39 91 48 48 87 43 57 83 38 66 79 34 74 76 31 80 74 31 84 75 32 86 78 35 84 83 40 80 90 46 75 98 53 68 107 60 62 116 66 56 125 71 52 131 74 51 135 74 52 137 73 56 136 69 62 133 65 70 129 59 78 123 54 87 118 49 94 113 46 99 110 45 102 109 45 103 110 48 100 113 52 95 118 58 88 125 64 81 132 70 73 139 75 66 145 78 61 149 80 59 150 80 59 150 77 62 146 245 245 255 67 73 133 60 80 125 54 87 117 48 93 110 44 97 105 41 98 101 41 97 100 43 93 101 46 87 103 51 78 108 56 70 113 61 61 117 65 53 121 68 47 122 68 44 122 67 43 119 63 45 114 58 49 106 52 54 97 44 61 88 37 67 78 31 72 70 26 75 63 24 76 58 23 74 56
56 31 93 53 37 92 50 45 89 45 54 85 40 63 81 36 72 78 33 79 76 31 84 75 31 86 77 34 85 82 38 82 88 44 77 96 51 71 105 58 65 115 65 59 123 70 54 131 74 52 136 75 52 138 74 55 139 72 61 137 68 68 133 62 76 128 57 85 122 52 93 117 48 99 114 46 103 112 46 104 112 48 103 115 52 99 120 57 93 126 63 85 133 69 78 140 75 71 147 79 65 151 81 62 154 82 61 154 80 62 152 76 67 147 71 73 140 64 80 133 58 87 125 52 93 117 47 98 111 44 100 106 43 100 104 44 97 104 46 91 107 51 84 110 56 75 115 61 66 120 65 58 124 69 51 126 70 47 127 70 45 125 67 46 120 62 49 114 56 54 105 49 61 96 42 67 86 35 73 77 30 76 69 26 78 64 25 77 60 25 73 59
55 34 93 51 42 91 47 50 87 42 60 83 38 69 80 34 77 77 32 82 76 31 86 77 33 86 80 37 84 86 43 80 94 49 74 103 56 68 112 63 62 122 69 56 130 73 53 136 76 53 139 76 55 141 74 60 140 70 66 136 65 74 132 60 83 127 55 92 122 50 99 117 48 103 115 47 106 115 48 105 117 51 102 121 56 97 127 62 90 134 68 82 141 74 75 148 79 69 154 82 65 157 83 63 158 82 64 157 79 67 153 74 72 147 68 79 140 62 87 132 56 93 124 50 99 117 46 102 112 45 103 109 45 101 108 47 96 110 51 89 113 56 81 118 61 72 122 66 63 127 69 56 130 72 51 131 72 48 130 70 48 127 66 50 121 60 55 113 53 61 103 46 67 94 39 73 84 33 77 76 29 80 70 27 80 65 26 77 64 28 72 64
53 39 92 49 47 89 44 56 85 39 66 81 35 74 78 32 81 76 31 85 77 33 87 80 36 86 85 41 82 92 47 77 100 54 71 110 61 64 119 68 59 128 72 55 135 76 54 140 77 55 142 75 58 142 72 65 140 68 72 136 63 81 131 58 90 126 53 97 121 50 103 118 48 107 117 49 107 118 51 105 122 55 101 127 61 94 134 67 87 142 73 79 149 79 73 155 83 68 160 85 65 162 85 65 162 82 68 159 78 72 154 72 79 147 66 86 139 60 93 131 54 99 124 49 103 118 47 105 114 46 104 113 48 100 113 51 94 116 55 86 120 61 78 125 66 69 130 70 61 133 73 55 135 74 51 135 73 50 132 69 51 127 64 55 120 58 60 111 50 67 102 43 73 92 37 78 83 32 81 76 29 82 71 28 80 68 29 76 68 32 69 69
50 44 90 46 53 87 41 62 83 37 71 79 33 79 77 32 84 77 32 87 79 35 87 83 39 84 90 45 80 98 52 74 107 59 67 117 66 61 126 245 245 255 75 54 140 77 55 143 77 58 144 74 63 142 71 70 139 66 79 135 60 88 130 55 96 125 52 103 122 49 107 120 49 109 120 51 108 123 55 104 128 60 98 135 66 91 142 73 84 150 78 77 157 83 71 162 86 68 165 87 67 166 85 68 164 81 73 160 76 78 154 70 86 146 64 93 138 58 99 131 53 104 124 49 107 120 48 107 117 49 104 117 51 99 119 55 92 123 60 83 128 66 74 132 70 66 136 74 59 139 75 54 140 75 52 138 72 53 134 68 56 127 62 61 119 55 67 109 48 73 100 245 245 255 35 83 83 32 84 77 30 84 73 30 80 72 32 74 73 36 66 75
48 49 88 43 59 84 38 68 81 35 76 78 32 83 77 32 86 78 34 87 82 37 86 87 43 82 95 49 76 104 57 70 114 64 64 124 70 59 132 74 56 139 77 55 143 78 57 145 76 61 145 73 68 142 68 76 138 63 85 133 58 94 129 54 101 125 51 107 123 50 110 122 51 110 125 54 107 129 59 102 135 65 96 142 72 88 150 78 81 157 83 75 164 86 71 168 88 69 170 87 70 169 85 73 166 245 245 255 74 85 153 68 92 145 62 99 138 56 105 131 52 109 126 50 110 122 50 108 121 52 104 123 56 97 126 60 89 130 66 80 135 70 71 139 74 64 143 77 58 144 77 55 143 75 54 140 72 56 134 66 61 126 59 66 117 52 73 107 45 79 98 39 83 89 34 86 83 32 86 78 31 84 76 33 79 76 36 71 78 40 62 81
45 55 86 40 65 82 36 73 79 33 81 77 32 85 78 33 87 80 36 87 85 41 84 92 47 79 101 54 73 111 61 66 121 68 61 130 73 57 137 77 55 143 78 56 146 77 60 146 75 66 145 71 74 141 66 83 137 60 92 132 56 100 128 53 106 125 51 110 124 52 111 126 54 110 130 58 106 135 64 100 142 70 93 150 77 85 158 83 79 165 87 74 170 89 71 173 89 71 173 87 73 171 84 78 166 78 84 160 72 92 152 66 99 145 60 105 137 55 110 132 52 112 128 52 111 126 53 108 126 56 102 129 60 94 133 65 85 138 70 77 142 75 69 146 78 62 148 79 58 148 78 56 146 75 58 141 70 61 134 64 66 125 56 73 115 49 79 105 43 84 96 245 245 255 34 89 83 33 87 80 34 83 80 36 76 81 40 68 84 45 58 87
42 61 83 37 70 80 34 78 77 32 84 77 32 87 79 34 87 83 39 85 90 45 81 98 52 75 108 59 69 118 66 63 127 72 58 135 76 56 142 78 56 146 78 59 147 76 64 146 73 72 144 68 80 140 63 89 135 58 98 131 54 105 128 52 110 126 52 112 127 54 112 130 58 109 135 63 104 142 69 97 150 76 90 158 82 83 166 87 77 172 90 74 176 91 73 177 90 74 176 87 78 172 82 84 166 76 91 159 70 99 152 64 105 144 58 111 138 55 114 133 53 114 131 54 112 130 56 107 132 60 100 136 65 91 140 70 82 145 75 74 149 79 67 152 81 61 153 80 59 151 78 59 147 74 62 141 68 67 132 61 72 123 54 79 113 47 84 104 41 89 96 37 91 89 35 90 85 35 87 84 37 81 84 40 73 86 45 64 90 49 54 94
39 67 80 35 75 78 32 82 77 32 86 78 33 87 81 37 86 87 42 83 95 49 77 104 56 71 114 63 65 124 70 60 133 75 57 140 78 56 145 79 58 148 78 62 148 75 69 146 70 77 142 65 87 138 60 96 134 56 103 130 54 109 128 53 113 128 54 114 131 57 111 135 62 107 142 68 101 150 74 94 158 81 87 166 86 81 173 90 77 178 92 75 180 92 75 180 90 78 178 86 84 173 80 91 166 74 98 159 67 105 151 62 111 144 58 115 139 56 117 136 55 115 134 57 111 136 60 105 138 65 97 143 70 88 147 75 79 152 79 71 155 82 65 157 82 62 156 81 61 153 77 63 148 72 67 140 65 72 131 58 79 121 51 85 111 45 89 102 40 92 95 37 93 90 36 91 88 37 86 88 40 78 89 45 70 92 49 60 96 54 51 100
36 72 78 33 79 76 32 85 77 32 87 79 35 87 84 40 84 92 46 79 100 54 74 110 61 67 120 68 62 130 73 58 138 77 56 144 79 57 148 79 61 149 76 67 148 72 75 145 68 84 141 63 93 136 58 101 133 55 108 130 53 113 130 54 115 131 56 114 135 61 110 141 66 105 149 73 98 157 80 91 166 86 84 173 90 80 179 93 77 183 94 77 184 92 79 182 89 84 178 84 90 173 78 97 165 71 105 158 66 111 151 61 116 145 58 119 141 57 118 139 58 115 139 61 110 142 65 102 145 70 93 150 75 84 155 80 76 159 83 70 161 84 65 161 84 63 159 81 64 154 76 67 147 69 72 138 62 78 129 55 85 119 48 90 110 43 94 102 39 95 96 38 94 92 38 90 91 41 83 92 44 75 95 49 66 98 54 56 102 58 47 105
34 77 76 32 83 76 32 86 78 34 87 82 38 85 88 44 81 97 51 76 106 58 70 117 65 64 126 71 59 135 76 57 142 79 57 147 79 59 149 77 64 149 74 72 146 70 81 143 65 90 139 60 99 135 56 106 132 54 112 131 54 115 132 56 115 135 60 113 141 65 108 148 71 102 156 78 95 165 85 88 173 90 83 180 94 79 185 95 78 187 95 79 187 92 83 184 87 89 179 82 97 172 75 104 165 69 111 157 64 117 151 61 120 146 59 121 144 59 119 143 61 114 145 65 107 148 70 99 153 75 90 157 80 81 162 84 74 165 86 69 166 86 66 164 84 66 160 79 68 154 74 72 146 67 78 136 59 85 126 52 90 117 46 95 108 42 97 102 40 97 97 39 94 95 41 88 96 44 80 98 49 71 101 54 62 105 58 52 108 61 45 110
32 80 75 31 85 76 32 87 79 36 86 85 41 83 93 48 78 102 55 72 113 63 66 123 69 61 132 74 57 140 78 56 145 79 58 148 78 62 149 76 69 148 72 77 145 67 87 141 62 96 137 58 104 134 55 111 132 54 115 132 55 116 135 59 115 140 63 111 147 70 105 155 77 98 164 83 92 173 89 86 180 94 82 186 96 80 189 96 80 190 94 84 189 91 89 184 85 96 178 79 103 171 73 111 164 68 117 157 63 122 152 61 124 149 61 123 147 62 119 148 65 113 151 70 105 155 75 96 160 80 87 164 84 79 168 87 73 170 88 69 169 86 68 166 83 69 161 78 73 153 71 78 144 64 84 134 57 90 124 50 95 115 45 98 108 42 99 103 41 97 100 42 92 99 45 85 100 49 77 103 53 67 107 58 58 110 62 49 113 64 43 114
31 83 75 31 86 77 34 86 82 39 84 89 45 79 98 52 74 108 60 68 118 67 62 128 73 58 137 77 56 143 79 57 147 79 60 149 77 66 148 73 74 146 69 83 143 64 93 139 60 102 135 56 109 133 55 114 133 55 116 135 58 116 139 62 113 145 68 108 153 75 102 162 82 95 171 88 89 180 93 84 186 97 81 191 98 81 193 97 84 193 94 88 189 89 95 184 83 103 178 77 110 171 71 117 164 67 122 158 63 125 154 62 126 152 63 123 152 66 117 154 70 110 158 75 101 163 80 92 167 85 84 171 88 77 174 89 72 174 89 70 172 86 70 167 82 73 160 75 78 152 68 84 142 61 90 132 54 96 122 48 100 114 44 101 108 43 100 104 43 96 103 45 90 103 49 82 106 53 73 109 58 63 113 62 54 116 65 47 117 66 42 117
31 85 75 33 86 79 37 84 85 42 81 94 49 75 104 57 70 114 64 64 124 70 59 133 75 56 141 78 56 146 79 59 148 78 64 149 75 71 147 71 80 144 66 89 140 61 99 137 57 107 134 55 113 133 55 116 134 57 117 138 61 115 144 66 111 151 73 105 160 80 98 170 86 92 178 92 87 186 96 83 192 99 82 195 98 84 196 96 88 194 92 94 190 87 102 184 81 109 177 75 117 170 70 123 164 66 127 160 64 128 157 64 126 156 66 122 158 70 115 161 75 107 165 80 98 170 85 89 174 89 82 177 91 76 178 91 73 177 89 72 173 85 74 167 79 78 159 73 84 150 65 90 139 58 96 130 52 100 121 47 103 114 45 103 109 44 100 107 45 95 107 49 87 108 53 78 111 58 68 115 62 59 118 65 51 120 67 45 120 67 42 118
31 85 76 34 85 82 40 82 90 46 77 99 53 71 109 61 65 120 68 60 129 73 57 137 77 56 143 79 57 147 78 61 148 76 68 147 72 76 145 67 86 141 63 95 138 59 104 135 56 111 133 55 115 134 56 117 137 59 116 142 64 113 149 70 108 158 78 101 167 85 95 177 91 89 185 96 85 192 99 84 197 100 84 198 98 88 198 95 93 195 90 100 190 85 108 183 79 116 177 73 123 170 69 128 165 66 130 162 66 130 160 67 126 161 70 120 164 75 113 168 80 104 172 85 95 177 89 87 180 92 80 182 93 76 182 92 74 179 89 75 174 83 79 166 77 84 157 70 90 147 62 96 137 56 101 128 50 104 120 47 105 114 46 103 111 46 99 110 49 92 111 53 83 114 57 74 117 62 64 121 66 56 123 68 49 124 69 44 123 67 43 119
32 85 78 37 83 85 43 78 94 50 73 104 245 245 255 65 62 125 71 57 134 76 55 141 78 56 145 78 59 147 77 65 147 73 73 145 245 245 255 64 92 139 60 101 135 57 108 133 55 114 133 55 117 135 58 117 140 62 115 146 68 110 155 75 104 164 82 98 174 89 92 183 95 87 191 99 85 197 101 85 200 100 87 201 98 92 199 93 99 194 88 107 189 82 115 183 77 123 176 72 128 171 69 132 167 68 132 165 68 130 165 71 125 167 75 118 171 80 109 175 85 100 180 89 92 184 93 84 186 95 79 187 94 77 185 92 77 180 87 79 173 81 84 165 74 90 155 66 96 145 59 101 135 54 105 126 49 107 120 47 106 116 47 103 114 49 97 114 53 89 116 57 79 119 62 70 123 66 61 126 69 53 127 70 48 127 69 45 124 66 45 119
35 83 81 40 80 90 47 74 99 55 69 110 62 63 120 69 58 130 74 55 137 77 55 143 78 57 146 77 62 147 74 69 146 70 78 143 66 88 139 61 97 136 58 105 133 55 112 133 55 116 134 57 117 138 60 116 144 66 112 152 73 107 161 80 100 171 87 94 181 93 89 189 98 86 196 101 85 201 245 245 255 100 91 202 96 98 199 91 106 194 86 114 188 80 122 182 75 129 176 71 133 172 70 135 170 70 134 169 71 130 170 75 123 174 80 115 178 85 106 182 90 97 187 93 89 190 96 83 191 96 79 190 94 79 186 91 80 180 85 84 172 78 89 162 71 95 152 63 101 142 57 106 133 52 109 126 49 109 120 48 106 118 50 101 117 53 94 119 57 85 122 61 75 125 66 66 128 69 57 130 71 51 131 71 47 129 69 46 124 65 48 118
37 80 85 44 76 94 51 70 104 59 64 115 66 59 125 71 55 133 75 54 140 77 55 144 77 59 146 75 66 145 72 74 143 67 84 140 62 93 136 58 102 133 56 109 132 55 114 133 56 117 136 59 116 141 64 113 148 70 109 157 77 103 167 85 97 177 91 91 187 97 87 195 100 86 200 102 87 203 101 90 204 98 96 202 94 104 198 89 112 193 83 121 187 78 128 182 74 134 177 72 137 174 71 137 173 72 134 174 75 128 177 80 120 180 85 112 185 90 102 189 94 94 193 97 87 195 98 83 194 97 81 192 94 81 186 89 84 179 82 89 170 75 95 160 245 245 255 61 106 140 55 110 132 52 111 126 50 109 122 50 105 121 53 98 121 56 90 124 61 80 127 65 71 130 69 62 133 72 55 134 73 50 133 71 48 130 68 48 124 63 51 116
41 77 89 48 71 99 55 66 110 63 60 120 69 56 129 74 54 136 76 54 141 77 57 144 76 62 144 73 70 143 68 79 140 64 89 136 59 98 133 56 106 131 54 112 131 55 116 133 57 116 138 61 114 145 67 110 153 74 105 163 82 99 173 89 93 183 95 89 192 99 86 199 102 86 203 102 89 205 100 94 204 97 102 201 92 110 197 86 119 192 81 127 187 77 134 182 74 138 179 73 139 178 73 137 178 76 133 180 80 126 183 84 117 188 90 108 192 94 99 196 98 92 198 99 86 199 99 83 197 97 83 192 92 85 186 86 89 177 79 95 167 72 101 157 65 106 147 59 111 138 54 113 131 52 112 126 51 109 124 53 103 124 56 95 126 60 86 129 65 76 132 69 67 135 72 59 137 74 53 137 73 50 134 71 50 129 66 52 122 60 56 113
44 73 94 52 67 104 59 61 115 66 56 124 71 53 132 75 53 138 76 55 142 76 59 143 73 66 142 69 75 140 65 85 136 60 94 133 57 103 131 54 110 130 54 114 131 55 116 135 59 115 141 64 112 149 71 107 159 79 101 169 86 95 179 93 90 189 98 87 196 101 86 202 102 88 205 101 93 205 98 99 204 94 108 200 89 117 196 84 125 191 80 133 187 245 245 255 75 141 182 75 141 182 76 137 183 80 131 186 84 123 190 89 114 195 94 105 199 98 96 202 101 90 203 101 86 202 100 85 198 96 86 192 90 89 184 83 95 174 76 101 164 69 106 154 62 111 144 57 114 137 54 114 131 53 112 128 53 107 127 56 100 128 60 91 131 65 81 134 69 72 137 73 63 140 75 57 140 75 52 138 73 51 134 69 52 128 64 56 119 57 61 110
48 68 98 56 62 109 63 57 119 69 53 128 73 52 135 75 53 139 76 56 141 74 63 141 70 71 139 66 80 136 61 90 133 57 99 130 54 107 129 53 112 129 54 115 132 57 115 137 62 112 145 68 108 154 75 102 164 83 96 175 90 91 184 96 87 193 100 86 199 102 87 204 102 90 205 100 97 205 96 105 202 91 114 198 87 123 194 82 131 190 78 138 187 76 142 185 76 143 185 77 141 187 80 136 189 84 128 193 89 119 197 94 110 201 99 101 205 102 94 207 103 89 206 102 87 204 99 87 198 94 90 191 88 94 182 80 100 171 73 106 161 66 111 151 60 115 143 56 116 136 54 115 132 54 111 130 56 104 131 60 96 133 64 86 136 69 77 139 73 68 142 75 60 143 76 55 142 75 53 139 72 53 133 67 56 126 60 60 116 53 66 106
52 63 103 60 58 114 66 53 123 71 51 130 74 51 136 75 54 139 74 59 139 71 67 138 67 76 135 62 85 132 58 95 129 55 103 127 53 110 127 53 113 129 55 114 133 59 113 140 65 109 149 72 104 159 80 98 169 87 92 180 93 88 189 98 86 196 101 86 201 102 88 204 101 94 204 97 101 203 93 110 200 88 120 196 84 129 192 80 137 190 78 142 188 77 145 188 78 144 190 81 140 192 85 134 196 89 125 200 94 116 204 99 107 208 102 99 210 104 93 210 104 89 208 102 89 204 97 90 197 91 94 189 84 100 178 77 106 168 69 111 158 63 115 149 58 118 141 56 117 136 55 114 134 56 109 133 60 101 135 64 92 138 68 82 141 73 72 144 76 64 146 77 58 146 77 55 143 75 54 139 70 56 132 64 60 123 57 65 112 49 71 102
56 59 108 63 54 118 69 51 126 72 50 132 74 51 136 74 56 138 71 63 137 68 71 135 63 81 131 59 91 128 55 99 126 52 106 125 52 111 126 53 113 130 57 113 136 62 110 144 69 105 153 76 99 164 84 93 174 91 89 184 96 85 192 100 85 198 101 86 202 101 91 203 98 98 203 95 106 200 90 116 197 85 126 193 82 134 191 79 141 189 78 145 190 79 146 192 81 144 195 85 139 199 89 131 203 94 121 207 99 112 210 103 103 213 105 97 214 106 92 213 104 90 209 101 91 203 95 94 195 88 99 185 81 105 175 73 111 164 67 115 155 61 119 147 58 119 141 56 117 137 57 112 136 59 105 137 63 97 139 68 87 142 72 77 146 76 69 148 78 62 149 79 57 147 77 55 143 73 56 137 68 60 129 61 64 119 53 70 108 46 76 98
60 54 112 66 50 121 70 49 128 73 49 133 73 53 135 72 59 135 68 67 134 64 76 131 60 86 127 55 95 125 52 103 123 51 109 123 52 112 126 54 112 131 59 110 138 65 106 148 73 100 158 80 95 168 87 89 179 93 85 188 98 84 195 100 84 199 100 88 201 99 94 201 95 102 200 91 112 197 87 121 193 82 131 190 79 138 189 78 144 189 79 147 192 81 147 196 85 143 202 89 136 206 94 127 209 99 117 213 103 108 216 106 101 217 107 95 217 106 92 214 103 92 209 99 94 201 92 99 192 85 104 182 77 110 171 70 115 161 64 119 152 60 121 145 58 120 141 58 116 139 245 245 255 63 101 141 67 92 144 72 82 147 76 73 150 79 65 151 80 60 150 79 57 147 76 57 142 71 59 135 65 64 125 57 69 115 50 75 104 42 80 94
63 50 115 68 48 123 71 47 129 72 50 132 71 55 133 69 62 132 65 71 130 60 81 126 56 91 123 52 99 121 50 106 121 50 110 123 52 111 127 56 110 133 62 106 142 69 101 152 76 96 162 84 90 173 90 85 182 95 83 190 99 83 196 100 85 199 99 90 200 96 98 198 92 107 196 87 117 192 83 126 189 80 135 187 78 141 187 78 145 189 80 146 193 84 145 200 89 141 209 93 132 211 98 123 214 102 113 217 106 105 219 108 98 220 108 94 218 106 93 213 102 95 207 96 98 198 89 103 188 81 109 177 74 115 167 67 119 158 62 122 150 59 122 145 58 119 142 59 113 141 62 106 142 66 97 145 71 87 148 75 77 151 79 69 153 81 63 153 80 59 151 78 58 147 74 60 140 68 63 131 61 68 121 53 74 111 46 80 100 40 84 91
65 47 118 69 46 125 71 47 129 71 52 131 69 58 130 65 67 128 61 76 125 57 86 122 53 95 119 50 102 118 49 107 119 50 110 122 53 109 128 59 107 136 65 102 145 73 96 156 80 91 167 87 86 176 93 82 185 97 81 191 99 83 195 98 87 197 96 94 196 93 102 194 88 112 191 84 121 188 80 130 185 77 137 184 76 142 185 77 145 188 81 144 194 86 141 201 91 135 209 97 127 214 101 117 218 105 109 221 108 101 222 109 97 221 108 94 217 104 95 212 99 98 204 92 102 194 85 108 183 77 114 173 70 119 163 65 122 155 61 123 149 59 121 145 60 117 143 62 110 144 66 101 146 70 92 149 75 82 152 78 73 155 81 66 156 82 61 155 80 59 151 77 60 145 71 63 137 65 68 127 57 73 117 50 79 106 43 84 96 37 87 88
67 45 120 70 45 125 70 48 128 69 54 128 66 62 127 62 71 124 57 81 121 53 90 118 50 98 116 48 104 116 48 108 118 51 108 123 55 107 130 61 103 139 69 97 149 76 91 160 84 86 170 90 82 179 94 80 186 97 80 191 97 84 194 96 89 194 93 97 192 89 106 189 84 116 186 80 125 183 76 133 181 75 139 181 75 142 183 78 143 188 82 140 194 87 135 202 94 128 209 99 120 215 104 112 220 108 104 222 109 99 222 109 95 220 106 95 215 102 97 208 96 101 199 88 107 189 81 113 179 74 118 168 67 122 160 63 124 152 60 123 148 60 120 145 62 114 145 65 106 147 69 96 150 74 87 153 78 77 156 81 70 158 82 64 157 82 61 155 79 60 150 74 63 142 68 67 133 61 72 123 53 78 112 46 83 102 40 87 93 36 89 86
68 43 121 69 45 125 69 50 126 66 57 125 62 66 122 58 76 119 53 86 116 50 94 114 47 101 113 47 105 114 49 107 118 52 106 125 58 103 133 65 98 143 72 92 153 80 86 164 86 82 173 245 245 255 95 78 187 96 80 190 95 85 191 93 92 190 89 101 187 84 111 184 80 120 181 76 129 178 74 135 177 73 139 179 75 141 182 78 139 187 83 135 195 90 129 202 96 121 210 102 114 216 106 106 220 109 100 222 109 96 221 108 95 218 104 97 212 98 100 204 92 105 194 84 111 184 77 117 173 70 122 164 65 124 156 62 125 151 61 122 148 62 117 147 64 110 148 68 101 151 73 91 154 77 82 157 81 73 159 83 67 160 83 63 158 81 61 154 77 63 147 71 66 139 64 71 129 57 77 118 49 83 108 43 87 98 38 90 91 35 90 85
68 43 121 68 47 123 66 53 123 63 61 121 58 71 118 54 81 114 50 90 112 47 97 110 46 103 111 47 105 114 50 105 119 54 103 127 61 98 136 68 93 146 76 87 157 83 82 167 89 78 175 93 76 182 95 78 186 95 81 188 93 88 187 89 96 185 85 105 182 80 115 178 76 124 175 73 131 174 72 136 174 72 138 176 75 138 181 80 135 187 85 129 195 92 122 203 98 115 211 103 107 216 107 101 220 109 97 221 108 95 219 106 96 214 101 99 207 245 245 255 87 109 188 80 115 178 73 121 168 67 124 160 63 126 154 61 124 150 62 120 148 64 114 149 67 105 151 72 96 154 76 86 158 80 77 160 83 70 161 84 65 160 83 62 157 80 63 152 74 65 144 68 70 134 60 76 124 53 82 113 46 87 103 40 90 95 36 91 89 35 90 85
67 44 119 66 49 120 63 57 119 59 66 116 54 75 113 50 85 110 46 93 108 45 99 107 45 103 109 47 104 114 51 102 121 57 99 129 64 93 139 72 87 150 79 82 160 85 77 169 90 75 176 93 75 182 94 78 184 92 83 184 89 91 183 85 100 180 80 110 176 76 119 173 72 127 170 70 132 170 70 136 171 72 136 175 76 134 181 81 129 188 88 123 196 94 115 204 100 108 211 105 102 216 108 97 219 108 95 218 106 95 215 102 97 210 97 101 202 90 107 192 83 113 182 75 119 172 69 124 164 65 126 157 62 126 152 62 123 150 63 117 149 66 109 151 71 100 154 75 90 158 80 81 161 83 73 163 84 67 163 84 64 160 82 63 156 77 65 148 71 69 140 64 74 129 56 80 119 49 86 109 43 90 100 245 245 255 36 91 88 35 88 85
65 45 117 63 52 116 59 61 114 55 70 111 50 80 108 46 89 105 44 96 104 43 100 105 45 102 109 48 102 115 53 98 123 60 94 132 68 88 143 75 82 153 82 77 163 87 74 171 91 73 177 92 75 180 91 79 181 89 86 180 85 95 177 80 104 174 76 113 170 72 122 167 69 128 166 68 133 166 69 134 169 73 133 174 77 129 181 83 123 189 90 116 197 96 109 205 102 102 211 106 97 215 107 94 216 106 93 215 104 95 211 99 99 204 92 105 195 85 111 186 78 117 176 72 122 167 66 125 159 63 126 154 62 124 151 63 120 150 65 113 151 69 104 154 74 94 157 79 85 161 82 76 163 85 70 164 85 65 163 83 64 159 80 65 153 74 68 144 67 73 135 60 79 124 52 85 114 46 89 104 40 92 96 37 93 91 36 91 87 37 86 86
63 48 114 59 56 112 55 65 109 51 75 106 46 84 103 43 92 101 42 97 101 43 100 104 45 100 109 50 98 116 56 94 125 63 88 135 71 82 146 78 77 156 84 73 164 88 71 171 90 72 175 90 75 177 89 81 177 85 89 175 81 98 171 76 108 167 71 117 164 68 124 162 67 129 162 67 132 163 69 131 168 74 128 174 79 123 181 86 116 189 92 109 198 98 102 205 103 97 210 106 93 213 106 92 213 104 93 210 100 96 205 94 102 197 87 108 188 80 114 179 74 120 170 68 124 162 64 126 156 62 125 152 62 122 150 64 116 151 68 108 153 73 98 157 77 89 160 81 80 163 84 72 165 86 67 164 85 65 162 82 65 156 77 67 149 70 72 140 63 77 129 56 83 119 49 89 109 43 92 101 39 94 94 37 93 90 37 89 88 39 82 88
60 51 110 56 60 107 51 69 104 47 79 101 43 87 98 41 94 98 41 98 100 43 99 104 47 98 110 52 94 118 59 89 128 67 83 139 74 77 149 80 72 158 85 70 165 88 69 170 89 72 173 88 77 174 85 84 172 81 93 169 76 102 165 71 112 161 68 119 158 65 125 157 65 129 158 66 129 161 70 127 167 75 123 174 82 117 182 88 110 190 95 103 198 100 97 205 103 92 209 105 90 210 104 91 209 101 94 205 96 98 198 89 105 190 82 111 181 76 118 172 70 123 164 65 126 157 63 126 153 62 123 151 63 118 151 67 111 153 71 102 156 76 93 160 80 83 163 84 75 165 86 69 166 86 66 164 83 65 160 79 67 153 73 70 144 66 76 134 59 82 124 52 87 114 45 92 105 40 94 97 38 94 92 37 91 90 38 86 89 41 78 91
56 55 105 51 64 102 47 74 98 43 83 96 40 90 95 39 95 95 40 97 98 43 97 104 49 94 112 55 89 121 63 83 131 70 77 142 77 72 151 82 68 159 86 67 165 88 69 169 87 73 170 85 79 169 81 87 166 76 97 162 71 106 158 67 115 155 64 121 153 63 126 153 64 127 156 67 126 160 71 122 167 77 117 175 84 110 183 91 103 191 96 96 198 101 92 204 103 89 206 103 89 206 101 91 203 97 95 198 91 101 191 84 108 182 77 115 174 71 120 165 66 124 158 63 126 153 62 124 151 63 120 150 65 114 151 69 106 154 74 96 158 79 87 162 83 78 165 85 71 166 86 67 165 85 65 162 81 66 156 76 69 149 69 74 139 62 80 129 55 86 118 48 91 109 42 94 101 39 95 95 38 93 92 38 89 90 41 82 91 44 73 94
52 59 100 47 68 96 43 78 93 39 86 91 38 91 91 245 245 255 41 95 98 45 93 105 51 89 114 58 83 124 66 77 134 73 72 144 79 68 153 83 65 159 86 66 164 86 69 166 84 74 166 81 82 163 76 91 160 71 100 156 67 109 152 63 117 150 61 122 149 62 125 150 64 124 154 68 122 160 73 117 167 80 110 176 86 103 184 93 96 192 98 91 198 101 88 202 102 86 203 101 88 202 97 92 197 92 97 191 86 104 183 79 111 175 73 117 166 67 122 159 63 125 154 62 125 150 62 122 149 64 116 150 67 109 153 72 100 157 77 90 161 81 81 164 85 74 166 86 69 166 86 66 164 83 66 159 78 68 152 72 73 143 65 78 133 58 84 123 51 90 113 45 94 105 40 95 98 38 95 94 38 91 92 40 85 92 43 77 94 48 68 97
47 63 94 43 73 91 39 81 88 37 88 88 36 92 89 38 93 93 42 92 99 47 89 107 54 84 116 61 78 127 69 72 137 75 67 146 80 64 153 83 63 159 84 65 162 83 70 162 81 77 160 76 86 157 71 95 153 67 104 149 63 112 146 60 118 145 60 122 145 61 123 148 64 121 153 69 116 160 75 110 168 82 104 177 89 97 185 94 91 192 98 86 197 100 85 199 100 85 199 97 88 196 93 93 190 87 100 183 80 107 175 74 114 167 68 120 160 64 123 154 61 124 150 61 123 148 62 118 149 66 111 151 70 103 154 75 93 159 80 84 162 83 76 165 86 70 166 86 66 165 84 65 161 80 67 155 75 71 147 68 76 138 61 82 127 53 88 117 47 93 108 42 95 101 39 96 96 38 93 93 39 88 92 42 81 94 46 72 97 51 62 100
43 67 89 39 76 86 36 84 84 35 89 85 36 91 87 39 91 93 44 88 100 50 84 109 57 78 119 65 72 129 71 67 139 77 63 147 81 61 153 83 62 157 82 66 158 80 72 157 76 80 154 72 89 151 67 98 146 62 107 143 59 114 141 58 118 140 58 120 142 61 119 147 65 116 153 71 110 161 78 104 169 85 97 177 91 90 185 95 86 191 98 83 194 99 83 195 97 85 194 93 89 189 88 96 183 82 103 176 75 110 168 69 116 160 64 121 154 61 123 149 60 123 147 61 119 147 64 113 149 68 105 152 73 96 156 78 87 160 82 79 164 85 72 166 86 67 166 85 65 163 82 66 158 77 69 151 71 74 141 63 80 132 56 86 121 49 91 112 44 95 104 40 96 98 39 95 94 39 91 93 41 84 94 45 76 96 50 66 100 54 57 103
39 71 83 35 79 81 34 85 81 34 89 83 36 90 87 40 88 93 46 84 102 53 78 112 60 72 122 67 66 132 74 62 140 78 59 147 81 59 152 81 62 154 80 67 154 76 75 151 72 84 148 67 93 144 62 102 140 58 109 137 56 115 136 56 118 137 58 118 140 62 115 146 67 110 153 74 104 161 80 97 170 87 90 178 92 85 185 96 81 189 97 80 191 96 82 191 93 86 188 89 91 182 83 98 175 76 106 168 70 113 160 65 118 153 61 122 148 60 122 145 60 120 145 62 115 146 66 108 149 70 99 153 75 90 158 80 81 162 84 74 165 86 69 165 86 66 164 83 65 160 79 68 153 73 72 145 66 78 135 59 84 125 52 90 116 46 94 107 41 96 100 39 96 96 39 93 94 41 87 94 44 79 96 48 70 99 53 60 103 57 51 106
35 75 78 33 81 77 32 86 78 33 88 81 37 87 87 42 83 95 49 78 104 56 72 114 245 245 255 70 61 133 75 58 141 78 57 146 80 59 149 79 63 150 76 70 148 72 78 145 67 87 141 62 96 137 58 104 134 55 111 132 54 115 132 55 116 135 58 114 139 63 110 146 245 245 255 76 97 163 83 91 171 88 85 178 93 80 184 95 78 187 95 79 187 93 82 185 89 87 181 84 94 174 77 101 167 71 109 160 66 115 153 61 119 147 59 121 144 59 120 143 60 116 143 63 110 146 68 102 150 73 93 155 78 84 159 82 76 163 85 70 165 86 66 164 84 65 161 81 66 155 75 70 148 69 76 139 62 82 129 54 88 119 48 93 110 43 96 103 40 96 97 39 94 95 40 90 94 43 83 96 47 74 98 51 64 102 56 55 106 60 47 108
32 77 74 30 83 74 31 85 76 34 85 81 38 83 88 44 78 97 52 73 107 59 66 117 66 61 126 72 57 134 76 55 141 78 56 145 78 59 146 75 65 145 72 73 142 67 81 139 62 91 134 58 99 131 54 106 128 53 111 127 53 113 129 55 113 133 59 110 139 65 104 146 72 98 155 78 91 164 85 84 171 90 79 178 93 77 182 94 76 183 245 245 255 89 83 179 84 89 173 78 97 166 72 104 159 66 111 152 62 116 146 59 119 142 57 119 140 58 117 141 61 111 143 65 104 147 70 95 152 76 86 156 80 78 160 84 71 163 85 67 163 85 65 162 82 65 157 77 68 150 71 73 142 64 79 132 57 85 122 50 91 113 45 95 105 41 97 99 39 96 95 39 92 94 42 86 95 45 77 98 50 68 101 55 59 105 59 50 108 62 43 109
29 79 70 29 83 71 31 84 75 35 82 81 40 78 89 47 73 99 55 67 109 62 61 119 68 56 128 73 53 135 76 53 139 76 55 142 75 60 142 72 67 139 67 76 136 62 85 132 57 94 128 54 102 125 51 107 123 51 111 124 52 111 127 56 109 132 61 104 139 67 98 147 74 91 156 81 84 164 86 79 171 90 75 176 92 74 179 91 75 179 89 79 176 85 85 172 79 92 165 73 100 158 67 107 151 62 113 145 58 117 141 57 118 138 57 117 138 59 112 140 63 106 143 68 98 148 73 89 153 78 80 157 82 73 161 84 67 162 85 64 161 83 64 158 79 66 152 73 71 144 67 77 135 59 83 125 245 245 255 46 94 108 42 96 101 39 96 96 39 93 94 41 88 95 44 81 97 48 72 100 53 62 104 57 53 107 61 45 109 63 39 110
27 80 67 28 82 70 32 81 75 37 78 82 43 73 91 50 67 101 58 61 111 64 55 121 70 52 128 73 51 134 75 52 137 74 56 138 71 62 136 67 70 133 62 79 129 57 89 125 53 97 121 50 103 119 49 107 119 50 109 121 52 108 126 57 104 132 63 98 140 70 91 149 77 84 157 83 78 165 87 74 171 90 72 174 90 72 175 89 75 174 85 80 170 80 87 164 74 95 157 68 103 150 62 109 144 58 114 139 56 116 136 55 116 135 57 113 136 60 107 139 65 100 144 70 91 149 75 82 154 80 74 158 83 68 160 84 64 161 83 63 158 80 65 154 75 68 147 69 74 138 62 80 128 55 86 119 48 92 110 43 95 103 40 96 98 39 95 95 40 90 94 42 84 96 46 75 99 51 66 102 56 56 106 60 48 109 62 41 110 63 37 109
26 79 64 29 79 69 33 77 75 39 73 84 46 67 94 53 61 104 60 55 113 66 51 122 70 49 128 73 49 132 73 52 134 71 57 133 67 65 130 62 74 126 57 83 122 53 92 118 49 99 115 47 104 114 47 106 116 49 106 119 53 103 125 59 98 132 66 92 141 72 85 150 79 78 158 84 73 164 87 70 169 89 69 171 88 72 170 85 76 167 80 82 163 75 90 156 68 98 149 63 105 143 58 111 137 55 114 134 54 115 132 55 113 132 58 108 135 62 101 139 67 93 145 73 84 150 78 76 155 245 245 255 83 65 159 83 63 158 81 63 154 77 66 148 71 71 140 64 77 131 57 84 121 50 90 112 45 94 105 41 96 99 39 95 95 39 92 94 41 86 95 45 78 97 49 69 101 54 60 105 58 51 108 62 44 110 63 38 110 62 36 107
26 78 63 29 76 69 35 73 77 42 67 86 49 61 96 56 55 106 62 50 115 67 47 122 70 46 127 71 48 129 70 53 129 67 60 127 62 68 124 58 77 119 53 86 115 49 94 112 46 100 110 45 104 111 47 104 113 50 102 118 55 98 125 61 92 133 68 85 142 75 78 150 80 72 158 84 69 163 87 67 166 87 68 167 84 72 165 80 78 161 75 85 155 69 93 148 63 101 141 58 107 136 55 111 131 53 113 129 53 112 129 55 109 131 59 102 135 64 95 140 70 86 146 75 78 151 79 71 155 82 65 157 83 62 157 81 62 154 78 64 149 73 68 142 66 74 133 59 81 124 52 87 115 46 92 106 42 95 100 39 96 95 38 93 93 40 88 94 43 81 96 47 73 99 52 63 103 57 54 107 61 46 109 63 40 110 63 37 109 61 36 105
26 75 62 31 72 70 37 67 78 45 61 88 52 55 98 59 50 108 64 46 115 68 44 121 69 45 124 69 49 125 66 55 124 62 63 121 58 72 117 53 81 112 48 89 109 45 96 106 44 100 106 44 102 108 47 101 112 51 97 118 57 92 126 64 85 134 70 78 143 77 72 151 81 68 157 84 65 161 85 65 163 84 68 162 80 73 158 76 80 153 70 88 147 64 96 140 58 103 134 54 108 129 52 111 126 51 111 125 53 109 127 56 103 130 61 96 135 67 88 141 72 80 146 77 72 151 80 66 154 82 62 155 81 61 154 79 62 150 74 66 143 68 71 135 61 78 126 54 84 117 48 90 108 43 94 101 39 95 96 38 94 93 39 90 93 42 84 94 46 76 97 50 66 101 55 57 105 59 49 108 62 42 110 63 38 109 62 36 107 59 37 101
27 71 63 33 67 71 40 61 81 48 55 91 55 49 100 61 45 109 65 42 115 67 42 119 68 45 121 66 50 121 62 57 118 58 66 114 53 75 110 48 84 106 44 91 103 42 97 101 42 99 102 44 99 106 47 97 111 53 92 118 59 85 127 66 79 136 73 72 144 78 67 151 82 63 156 83 63 158 83 65 158 80 69 156 76 75 151 70 83 145 64 91 139 59 99 132 54 105 127 51 108 124 50 110 122 51 108 123 54 104 126 58 97 130 63 90 136 69 81 142 74 73 147 78 66 151 81 62 153 81 60 152 79 60 149 75 63 144 70 68 137 63 74 128 56 81 119 49 87 110 44 92 102 40 94 96 38 94 93 38 91 92 40 86 92 44 78 95 48 70 99 53 60 103 58 51 107 61 44 109 63 39 110 63 36 108 60 36 103 56 38 97
29 67 64 36 62 73 43 55 83 50 49 93 57 44 101 62 41 109 65 40 114 66 41 117 65 46 117 62 52 115 58 60 111 53 69 107 48 79 103 44 86 99 41 93 97 40 96 97 41 97 100 44 96 105 49 91 111 55 86 119 62 79 128 69 72 137 74 66 144 79 62 150 81 60 153 81 61 154 80 65 153 76 71 149 71 78 143 65 86 137 59 94 131 54 101 125 51 105 121 49 108 119 49 107 119 51 104 121 55 98 125 60 91 131 66 83 137 71 75 142 76 67 147 79 62 150 80 59 151 79 58 149 76 61 144 71 65 138 65 71 129 58 78 120 51 84 112 45 90 104 41 93 97 38 94 93 37 92 91 39 88 91 42 81 93 46 73 97 51 63 101 56 54 105 60 46 108 62 40 109 63 36 108 61 35 105 245 245 255 52 41 91
32 62 65 39 56 75 46 49 85 53 44 94 58 40 102 62 38 108 64 38 112 64 41 113 62 47 112 58 55 109 53 64 105 48 73 100 43 81 96 40 88 94 38 93 93 39 95 94 41 94 98 45 91 104 51 86 112 58 79 120 64 72 129 71 66 137 76 61 144 79 58 148 80 58 150 79 61 149 76 66 146 71 73 142 66 81 136 60 89 129 54 96 123 50 102 119 48 105 116 47 106 115 49 104 117 52 99 120 57 92 125 62 84 131 68 76 137 73 68 143 77 62 146 79 58 148 79 57 147 76 58 144 72 62 138 67 68 131 60 74 122 53 81 113 47 87 105 41 91 98 38 93 93 37 93 90 37 89 89 40 83 91 44 75 94 49 66 98 54 57 103 58 49 106 61 42 108 63 37 108 62 35 106 59 36 101 54 39 94 48 44 85
34 56 67 42 49 77 49 43 87 55 39 95 59 36 102 62 35 106 62 38 108 61 43 108 58 50 106 53 58 102 48 67 97 43 76 93 39 84 90 37 89 89 36 92 89 38 93 92 42 90 97 47 85 104 53 79 113 60 72 122 67 66 130 72 60 137 76 57 142 78 56 145 78 58 146 75 62 144 71 68 139 66 76 134 60 84 128 55 92 121 50 98 116 47 102 113 45 104 111 46 103 112 49 99 115 53 93 120 59 86 126 65 77 132 70 70 138 74 63 142 77 58 145 78 56 145 77 56 143 73 59 138 68 64 131 62 71 123 55 77 114 48 84 106 43 89 98 38 92 93 36 92 89 36 90 88 38 85 89 42 78 92 47 69 96 52 60 100 56 51 104 60 44 107 62 38 108 62 35 106 60 35 103 56 37 96 50 42 88 43 48 79
37 50 69 44 43 79 51 38 88 56 34 96 60 33 101 61 34 104 60 38 104 57 45 102 53 53 99 48 62 95 43 71 90 39 79 87 36 85 85 35 89 84 35 90 86 38 89 91 43 85 97 49 79 105 56 73 114 62 66 123 68 60 130 73 56 136 76 54 140 76 54 142 75 58 140 71 63 137 66 70 132 61 79 126 55 87 120 50 94 114 46 99 110 44 102 108 44 102 108 46 99 110 50 94 115 55 87 120 61 79 127 67 71 133 72 64 138 75 58 141 77 55 143 76 54 141 74 56 138 69 61 132 63 67 124 56 74 116 50 80 107 44 86 99 39 90 93 36 92 89 35 90 87 37 86 87 40 80 89 44 72 93 49 63 97 54 54 102 58 46 105 61 40 107 62 36 106 61 34 104 57 36 98 52 40 91 46 45 82 38 51 72
40 44 71 47 38 81 53 33 89 57 31 95 59 31 99 59 34 100 57 40 99 53 47 96 48 56 92 43 65 88 38 74 84 35 81 81 33 86 80 33 88 81 35 88 85 39 84 90 45 79 98 51 73 106 58 66 115 65 60 123 70 55 130 245 245 255 75 52 137 74 54 137 71 59 134 67 65 130 61 73 124 55 82 118 50 89 112 46 95 107 43 99 105 42 100 104 44 98 105 47 94 109 52 88 115 58 80 121 63 72 127 69 64 133 73 58 137 75 54 140 76 53 139 74 54 137 70 58 132 64 63 125 58 70 116 51 77 108 45 83 100 40 88 93 36 90 88 35 90 85 35 87 85 38 82 87 42 74 90 47 65 94 52 56 99 56 48 103 60 41 105 61 36 106 61 34 104 58 35 100 54 38 93 48 43 85 41 49 75 34 55 65
43 38 73 49 33 82 54 29 89 57 29 93 57 31 96 56 35 95 53 42 93 48 50 90 43 59 85 38 68 81 34 76 77 32 82 76 31 85 76 32 86 79 36 84 84 41 79 90 47 73 99 54 66 107 61 60 116 66 54 123 70 50 129 73 49 132 73 50 133 71 54 131 67 60 127 62 68 122 56 76 116 50 84 110 46 91 105 42 96 101 41 98 100 42 97 101 44 94 104 48 88 109 54 81 115 60 73 122 66 65 128 70 59 133 73 54 136 75 51 137 73 52 135 70 55 131 65 60 125 245 245 255 53 73 109 46 80 100 41 85 93 36 89 88 34 90 84 34 88 83 36 83 84 40 76 87 44 68 91 49 59 96 54 50 100 58 43 103 61 37 105 61 34 104 59 34 101 55 36 95 50 40 87 43 46 78 36 52 68 29 58 59
45 32 75 51 28 82 54 26 88 56 27 91 55 31 92 52 37 90 48 45 87 43 54 82 38 63 78 34 71 74 31 78 72 29 82 71 30 84 73 32 82 77 37 79 83 43 73 91 50 67 100 56 60 109 62 54 116 67 49 123 70 47 127 71 47 129 70 50 128 67 56 125 62 63 120 56 71 114 51 79 108 46 87 103 42 92 99 40 95 96 39 96 96 41 94 99 45 89 103 50 82 109 56 74 116 62 66 122 67 59 128 71 54 132 73 50 134 73 50 133 71 52 130 66 56 125 61 62 117 54 69 109 48 76 101 42 82 93 37 86 87 34 88 83 33 88 81 34 84 81 37 78 84 42 70 88 47 62 93 52 53 97 56 45 101 59 38 103 61 34 103 60 33 101 57 34 96 52 38 89 45 43 81 38 49 71 31 56 62 25 61 53
47 27 75 51 24 82 54 24 86 54 27 87 52 32 87 48 39 84 44 48 80 38 57 75 34 66 71 30 73 68 28 78 67 28 81 68 29 81 71 33 78 76 39 73 84 45 67 92 52 60 101 59 53 109 64 48 116 68 45 121 69 45 124 69 47 124 66 51 122 62 58 118 57 66 112 51 74 106 46 82 100 41 88 96 38 92 93 38 94 92 39 93 94 42 89 98 47 83 103 53 75 110 59 67 116 64 60 122 69 54 127 71 50 130 72 48 131 70 49 128 67 53 124 62 58 117 56 65 110 49 72 101 43 79 94 37 84 87 34 87 82 32 87 79 33 85 79 35 80 81 39 72 84 44 64 89 49 55 94 54 47 98 58 40 101 60 35 102 60 32 101 57 33 97 53 36 91 47 40 83 41 47 74 33 53 64 27 59 55 21 63 47
48 23 75 51 22 80 52 23 83 51 28 83 48 34 81 44 42 77 39 52 73 34 60 68 29 68 65 27 74 63 26 78 63 27 79 65 30 77 70 35 73 77 41 67 85 48 60 93 54 53 102 60 48 110 65 44 115 67 42 119 67 43 120 66 47 119 62 53 115 57 61 110 51 69 104 46 77 98 41 84 93 38 89 90 36 92 88 37 91 89 39 89 92 43 83 97 49 76 103 55 68 110 61 61 117 66 54 122 69 49 126 71 47 127 70 47 126 67 49 123 63 54 117 57 61 110 50 68 102 44 75 94 38 81 87 34 85 81 32 86 78 31 85 77 33 81 78 37 74 81 41 66 85 47 57 90 52 49 95 56 41 99 59 35 101 59 32 100 58 32 97 54 34 92 49 38 85 43 44 76 36 50 67 29 56 57 23 61 49 18 64 42
49 20 75 50 20 78 50 24 79 47 29 77 44 37 74 39 46 70 34 55 65 29 63 61 26 70 59 24 75 58 24 77 60 27 76 63 31 72 69 37 67 77 43 60 86 50 54 94 56 47 103 61 43 109 65 40 114 66 40 116 65 43 115 62 48 113 57 55 108 52 64 102 46 72 96 41 79 91 37 85 87 35 89 85 35 90 85 36 88 87 40 83 91 45 77 97 51 69 104 57 62 111 62 55 117 67 49 121 69 46 124 69 45 124 67 47 121 63 51 116 58 57 110 52 64 102 45 71 94 39 78 87 34 82 80 31 85 76 30 84 74 31 81 75 34 76 77 39 68 81 44 60 86 49 51 91 54 43 96 57 36 98 59 32 99 58 31 97 55 32 93 51 35 86 45 41 78 38 47 69 31 53 60 24 59 51 19 63 44 16 65 38

