P3
64 64
255
103 103 106 36 36 39 70 70 73 66 66 69 100 100 103 96 96 99 130 130 133 126 126 129 89 89 92 60 60 63 56 56 59 90 90 93 86 86 89 120 120 123 116 116 119 54 54 57 113 113 116 84 84 87 80 80 83 76 76 79 110 110 113 106 106 109 140 140 143 40 40 43 99 99 102 70 70 73 104 104 107 100 100 103 134 134 137 130 130 133 30 30 33 64 64 67 123 123 126 94 94 97 90 90 93 124 124 127 120 120 123 58 58 61 54 54 57 50 50 53 109 109 112 80 80 83 114 114 117 110 110 113 144 144 147 44 44 47 78 78 81 74 74 77 133 133 136 104 104 107 100 100 103 134 134 137 34 34 37 68 68 71 64 64 67 98 98 101 119 119 122 90 90 93 124 124 127 120 120 123 58 58 61 54 54 57 88 88 91 84 84 87
50 50 53 95 95 98 102 102 105 51 51 54 58 58 61 103 103 106 110 110 113 59 59 62 66 66 69 111 111 114 118 118 121 29 29 32 74 74 77 81 81 84 126 126 129 75 75 78 82 82 85 94 94 97 139 139 142 50 50 53 57 57 60 102 102 105 109 109 112 58 58 61 65 65 68 110 110 113 117 117 120 66 66 69 73 73 76 80 80 83 125 125 128 74 74 77 81 81 84 88 88 91 138 138 141 49 49 52 94 94 97 101 101 104 108 108 111 57 57 60 64 64 67 109 109 112 116 116 119 65 65 68 72 72 75 117 117 120 124 124 127 111 111 114 80 80 83 87 87 90 132 132 135 48 48 51 93 93 96 100 100 103 145 145 148 56 56 59 101 101 104 108 108 111 115 115 118 64 64 67 71 71 74 116 116 119 123 123 126 110 110 113
98 98 101 116 116 119 76 76 79 94 94 97 54 54 57 72 72 75 128 128 131 50 50 53 106 106 109 129 129 132 51 51 54 107 107 110 29 29 32 85 85 88 141 141 144 63 63 66 81 81 84 142 142 145 64 64 67 82 82 85 42 42 45 60 60 63 116 116 119 38 38 41 94 94 97 112 112 115 77 77 80 95 95 98 151 151 154 73 73 76 129 129 132 51 51 54 69 69 72 125 125 128 52 52 55 108 108 111 126 126 129 86 86 89 104 104 107 26 26 29 82 82 85 100 100 103 60 60 63 83 83 86 139 139 142 61 61 64 155 155 158 39 39 42 57 57 60 113 113 116 35 35 38 96 96 99 114 114 117 74 74 77 92 92 95 148 148 151 70 70 73 88 88 91 48 48 51 66 66 69 127 127 130 49 49 52 143 143 146 123 123 126
108 108 111 79 79 82 108 108 111 79 79 82 108 108 111 79 79 82 113 113 116 84 84 87 113 113 116 84 84 87 113 113 116 46 46 49 118 118 121 89 89 92 118 118 121 51 51 54 118 118 121 56 56 59 123 123 126 56 56 59 85 85 88 56 56 59 85 85 88 61 61 64 90 90 93 61 61 64 90 90 93 61 61 64 90 90 93 66 66 69 95 95 98 28 28 31 95 95 98 124 124 127 100 100 103 129 129 132 100 100 103 129 129 132 62 62 65 129 129 132 67 67 70 134 134 137 67 67 70 134 134 137 67 67 70 172 172 175 72 72 75 139 139 142 72 72 75 101 101 104 72 72 75 106 106 109 77 77 80 106 106 109 77 77 80 106 106 109 77 77 80 111 111 114 44 44 47 111 111 114 44 44 47 149 149 152 44 44 47 116 116 119
60 60 63 100 100 103 82 82 85 122 122 125 104 104 107 53 53 56 131 131 134 75 75 78 57 57 60 102 102 105 46 46 49 124 124 127 106 106 109 55 55 58 95 95 98 77 77 80 117 117 120 104 104 107 48 48 51 88 88 91 70 70 73 110 110 113 97 97 100 41 41 44 119 119 122 63 63 66 146 146 149 90 90 93 110 110 113 112 112 115 61 61 64 139 139 142 83 83 86 65 65 68 110 110 113 92 92 95 36 36 39 114 114 117 58 58 61 103 103 106 85 85 88 29 29 32 107 107 110 56 56 59 172 172 175 78 78 81 60 60 63 105 105 108 49 49 52 127 127 130 71 71 74 58 58 61 98 98 101 80 80 83 120 120 123 102 102 105 51 51 54 91 91 94 73 73 76 113 113 116 138 138 141 44 44 47 122 122 125 66 66 69
70 70 73 63 63 66 114 114 117 107 107 110 67 67 70 60 60 63 111 111 114 109 109 112 64 64 67 153 153 156 108 108 111 106 106 109 61 61 64 112 112 115 110 110 113 65 65 68 58 58 61 114 114 117 107 107 110 62 62 65 113 113 116 111 111 114 66 66 69 59 59 62 115 115 118 108 108 111 63 63 66 94 94 97 112 112 115 67 67 70 60 60 63 116 116 119 109 109 112 64 64 67 62 62 65 113 113 116 106 106 109 61 61 64 21 21 24 110 110 113 65 65 68 63 63 66 114 114 117 145 145 148 62 62 65 60 60 63 111 111 114 104 104 107 64 64 67 115 115 118 108 108 111 68 68 71 61 61 64 112 112 115 105 105 108 65 65 68 58 58 61 109 109 112 69 69 72 100 100 103 113 113 116 106 106 109 66 66 69 59 59 62
118 118 121 84 84 87 88 88 91 59 59 62 63 63 66 125 125 128 134 134 137 100 100 103 104 104 107 75 75 78 79 79 82 45 45 48 112 112 115 116 116 119 82 82 85 91 91 94 57 57 60 66 66 69 128 128 131 94 94 97 103 103 106 69 69 72 73 73 76 44 44 47 144 144 147 110 110 113 157 157 160 85 85 88 89 89 92 60 60 63 26 26 29 126 126 129 97 97 100 101 101 104 72 72 75 76 76 79 42 42 45 147 147 150 113 113 116 79 79 82 88 88 91 54 54 57 96 96 99 125 125 128 129 129 132 95 95 98 104 104 107 70 70 73 36 36 39 45 45 48 107 107 110 116 116 119 82 82 85 86 86 89 57 57 60 61 61 64 123 123 126 94 94 97 136 136 139 64 64 67 73 73 76 39 39 42 139 139 142 110 110 113
32 32 35 47 47 50 120 120 123 140 140 143 117 117 120 137 137 140 114 114 117 129 129 132 111 111 114 164 164 167 108 108 111 85 85 88 100 100 103 82 82 85 97 97 100 79 79 82 94 94 97 76 76 79 91 91 94 68 68 71 50 50 53 65 65 68 47 47 50 62 62 65 39 39 42 97 97 100 36 36 39 56 56 59 129 129 132 106 106 109 126 126 129 103 103 106 123 123 126 100 100 103 120 120 123 97 97 100 112 112 115 94 94 97 71 71 74 91 91 94 68 68 71 121 121 124 65 65 68 80 80 83 62 62 65 77 77 80 54 54 57 74 74 77 51 51 54 33 33 36 48 48 51 30 30 33 141 141 144 118 118 121 138 138 141 115 115 118 135 135 138 150 150 153 89 89 92 109 109 112 86 86 89 106 106 109 83 83 86 98 98 101
105 105 108 68 68 71 94 94 97 87 87 90 113 113 116 106 106 109 132 132 135 125 125 128 214 214 217 48 48 51 36 36 39 67 67 70 55 55 58 86 86 89 74 74 77 105 105 108 118 118 121 124 124 127 112 112 115 100 100 103 131 131 134 119 119 122 54 54 57 42 42 45 136 136 139 61 61 64 92 92 95 80 80 83 111 111 114 99 99 102 92 92 95 118 118 121 136 136 139 137 137 140 34 34 37 60 60 63 48 48 51 79 79 82 67 67 70 60 60 63 149 149 152 79 79 82 105 105 108 98 98 101 124 124 127 117 117 120 143 143 146 40 40 43 53 53 56 59 59 62 47 47 50 78 78 81 66 66 69 92 92 95 85 85 88 111 111 114 167 167 170 92 92 95 123 123 126 111 111 114 46 46 49 34 34 37 65 65 68 53 53 56
90 90 93 127 127 130 35 35 38 72 72 75 76 76 79 113 113 116 117 117 120 96 96 99 62 62 65 99 99 102 103 103 106 102 102 105 48 48 51 47 47 50 89 89 92 88 88 91 130 130 133 38 38 41 75 75 78 79 79 82 78 78 81 120 120 123 119 119 122 103 103 106 64 64 67 106 106 109 105 105 108 147 147 150 50 50 53 54 54 57 91 91 94 95 95 98 132 132 135 40 40 43 82 82 85 81 81 84 123 123 126 122 122 125 30 30 33 105 105 108 71 71 74 108 108 111 112 112 115 53 53 56 57 57 60 94 94 97 98 98 101 135 135 138 43 43 46 42 42 45 84 84 87 88 88 91 125 125 128 33 33 36 70 70 73 112 112 115 111 111 114 115 115 118 114 114 117 60 60 63 59 59 62 101 101 104 100 100 103 142 142 145
42 42 45 52 52 55 105 105 108 115 115 118 72 72 75 82 82 85 173 173 176 54 54 57 102 102 105 117 117 120 31 31 34 84 84 87 99 99 102 51 51 54 66 66 69 114 114 117 129 129 132 86 86 89 96 96 99 111 111 114 63 63 66 78 78 81 164 164 167 45 45 48 98 98 101 108 108 111 65 65 68 75 75 78 128 128 131 47 47 50 57 57 60 110 110 113 120 120 123 77 77 80 92 92 95 140 140 143 59 59 62 107 107 110 160 160 163 36 36 39 89 89 92 104 104 107 56 56 59 71 71 74 119 119 122 38 38 41 91 91 94 101 101 104 116 116 119 68 68 71 83 83 86 136 136 139 50 50 53 103 103 106 151 151 154 70 70 73 80 80 83 95 95 98 52 52 55 62 62 65 115 115 118 29 29 32 82 82 85 97 97 100
52 52 55 111 111 114 41 41 44 100 100 103 30 30 33 132 132 135 115 115 118 83 83 86 109 109 112 72 72 75 98 98 101 28 28 31 87 87 90 113 113 116 81 81 84 102 102 105 70 70 73 96 96 99 59 59 62 85 85 88 106 106 109 112 112 115 100 100 103 63 63 66 89 89 92 57 57 60 78 78 81 142 142 145 72 72 75 93 93 96 61 61 64 87 87 90 50 50 53 76 76 79 140 140 143 65 65 68 129 129 132 92 92 95 80 80 83 48 48 51 69 69 72 133 133 136 63 63 66 122 122 125 52 52 55 116 116 119 41 41 44 105 105 108 131 131 134 56 56 59 120 120 123 50 50 53 109 109 112 77 77 80 98 98 101 124 124 127 92 92 95 113 113 116 43 43 46 107 107 110 32 32 35 96 96 99 122 122 125 85 85 88
100 100 103 36 36 39 111 111 114 52 52 55 160 160 163 63 63 66 138 138 141 74 74 77 149 149 152 90 90 93 31 31 34 101 101 104 42 42 45 117 117 120 53 53 56 128 128 131 69 69 72 144 144 147 80 80 83 21 21 24 134 134 137 32 32 35 107 107 110 48 48 51 118 118 121 59 59 62 134 134 137 75 75 78 145 145 148 86 86 89 27 27 30 97 97 100 38 38 41 113 113 116 54 54 57 124 124 127 103 103 106 140 140 143 76 76 79 113 113 116 92 92 95 28 28 31 103 103 106 44 44 47 119 119 122 55 55 58 130 130 133 71 71 74 103 103 106 82 82 85 119 119 122 98 98 101 72 72 75 109 109 112 50 50 53 120 120 123 61 61 64 98 98 101 72 72 75 109 109 112 88 88 91 29 29 32 99 99 102 40 40 43
110 110 113 95 95 98 47 47 50 171 171 174 85 85 88 70 70 73 118 118 121 108 108 111 60 60 63 141 141 144 93 93 96 45 45 48 131 131 134 78 78 81 68 68 71 116 116 119 106 106 109 58 58 61 139 139 142 129 129 132 43 43 46 129 129 132 76 76 79 66 66 69 114 114 117 104 104 107 51 51 54 137 137 140 89 89 92 41 41 44 122 122 125 74 74 77 64 64 67 112 112 115 102 102 105 87 87 90 135 135 138 87 87 90 39 39 42 120 120 123 72 72 75 62 62 65 110 110 113 95 95 98 47 47 50 133 133 136 85 85 88 70 70 73 118 118 121 70 70 73 60 60 63 146 146 149 93 93 96 45 45 48 131 131 134 83 83 86 68 68 71 116 116 119 68 68 71 58 58 61 101 101 104 91 91 94 43 43 46 129 129 132
62 62 65 116 116 119 155 155 158 80 80 83 81 81 84 44 44 47 136 136 139 99 99 102 100 100 103 63 63 66 26 26 29 123 123 126 81 81 84 82 82 85 45 45 48 142 142 145 105 105 108 106 106 109 102 102 105 27 27 30 124 124 127 87 87 90 88 88 91 46 46 49 143 143 146 106 106 109 107 107 110 70 70 73 71 71 74 125 125 128 88 88 91 89 89 92 52 52 55 53 53 56 150 150 153 108 108 111 71 71 74 72 72 75 131 131 134 94 94 97 90 90 93 53 53 56 54 54 57 113 113 116 114 114 117 77 77 80 73 73 76 132 132 135 95 95 98 96 96 99 97 97 100 60 60 63 114 114 117 115 115 118 78 78 81 79 79 82 42 42 45 96 96 99 97 97 100 60 60 63 61 61 64 120 120 123 121 121 124 79 79 82
72 72 75 117 117 120 53 53 56 65 65 68 39 39 42 51 51 54 121 121 124 133 133 136 107 107 110 114 114 117 88 88 91 62 62 65 74 74 77 48 48 51 60 60 63 34 34 37 142 142 145 154 154 157 123 123 126 97 97 100 71 71 74 83 83 86 57 57 60 69 69 72 43 43 46 55 55 58 120 120 123 132 132 135 106 106 109 80 80 83 92 92 95 66 66 69 78 78 81 90 90 93 64 64 67 129 129 132 141 141 144 115 115 118 89 89 92 101 101 104 75 75 78 87 87 90 61 61 64 68 68 71 42 42 45 54 54 57 124 124 127 136 136 139 110 110 113 122 122 125 96 96 99 70 70 73 77 77 80 51 51 54 63 63 66 37 37 40 145 145 148 119 119 122 93 93 96 105 105 108 74 74 77 86 86 89 60 60 63 72 72 75
183 183 186 100 100 103 123 123 126 108 108 111 131 131 134 116 116 119 139 139 142 124 124 127 172 172 175 132 132 135 117 117 120 44 44 47 29 29 32 52 52 55 37 37 40 60 60 63 108 108 111 68 68 71 48 48 51 33 33 36 56 56 59 41 41 44 64 64 67 49 49 52 97 97 100 57 57 60 80 80 83 65 65 68 88 88 91 73 73 76 58 58 61 81 81 84 129 129 132 89 89 92 74 74 77 92 92 95 77 77 80 100 100 103 85 85 88 70 70 73 118 118 121 78 78 81 101 101 104 86 86 89 109 109 112 94 94 97 117 117 120 102 102 105 150 150 153 110 110 113 95 95 98 118 118 121 98 98 101 121 121 124 106 106 109 129 129 132 139 139 142 99 99 102 122 122 125 107 107 110 130 130 133 115 115 118 138 138 141 123 123 126
34 34 37 68 68 71 64 64 67 98 98 101 94 94 97 128 128 131 124 124 127 62 62 65 58 58 61 92 92 95 88 88 91 84 84 87 118 118 121 114 114 117 52 52 55 86 86 89 82 82 85 78 78 81 112 112 115 108 108 111 104 104 107 138 138 141 38 38 41 72 72 75 68 68 71 102 102 105 98 98 101 132 132 135 128 128 131 28 28 31 62 62 65 96 96 99 92 92 95 88 88 91 122 122 125 118 118 121 56 56 59 52 52 55 48 48 51 82 82 85 78 78 81 112 112 115 108 108 111 142 142 145 42 42 45 76 76 79 72 72 75 144 144 147 102 102 105 98 98 101 132 132 135 32 32 35 66 66 69 62 62 65 96 96 99 92 92 95 126 126 129 122 122 125 118 118 121 56 56 59 52 52 55 86 86 89 82 82 85 154 154 157
82 82 85 89 89 92 134 134 137 45 45 48 90 90 93 97 97 100 142 142 145 53 53 56 98 98 101 105 105 108 112 112 115 61 61 64 68 68 71 113 113 116 158 158 161 69 69 72 76 76 79 126 126 129 133 133 136 44 44 47 89 89 92 96 96 99 141 141 144 52 52 55 97 97 100 104 104 107 149 149 152 60 60 63 105 105 108 112 112 115 157 157 160 68 68 71 75 75 78 120 120 123 36 36 39 81 81 84 88 88 91 133 133 136 44 44 47 51 51 54 96 96 99 103 103 106 52 52 55 59 59 62 104 104 107 111 111 114 98 98 101 67 67 70 74 74 77 119 119 122 30 30 33 80 80 83 87 87 90 132 132 135 43 43 46 88 88 91 95 95 98 102 102 105 51 51 54 58 58 61 103 103 106 110 110 113 97 97 100 66 66 69
92 92 95 52 52 55 70 70 73 126 126 129 48 48 51 104 104 107 122 122 125 82 82 85 100 100 103 65 65 68 83 83 86 101 101 104 61 61 64 117 117 120 135 135 138 57 57 60 113 113 116 40 40 43 96 96 99 114 114 117 36 36 39 92 92 95 110 110 113 70 70 73 88 88 91 144 144 147 71 71 74 127 127 130 49 49 52 105 105 108 123 123 126 45 45 48 101 101 104 119 119 122 84 84 87 102 102 105 62 62 65 80 80 83 98 98 101 58 58 61 76 76 79 132 132 135 54 54 57 115 115 118 37 37 40 131 131 134 111 111 114 71 71 74 89 89 92 107 107 110 67 67 70 90 90 93 50 50 53 68 68 71 124 124 127 46 46 49 102 102 105 120 120 123 42 42 45 98 98 101 121 121 124 119 119 122 99 99 102 59 59 62
44 44 47 73 73 76 44 44 47 73 73 76 140 140 143 73 73 76 145 145 148 78 78 81 145 145 148 78 78 81 107 107 110 78 78 81 150 150 153 83 83 86 112 112 115 83 83 86 112 112 115 88 88 91 117 117 120 50 50 53 117 117 120 50 50 53 117 117 120 55 55 58 122 122 125 55 55 58 122 122 125 55 55 58 160 160 163 60 60 63 89 89 92 60 60 63 89 89 92 60 60 63 94 94 97 65 65 68 94 94 97 65 65 68 94 94 97 27 27 30 99 99 102 32 32 35 99 99 102 32 32 35 137 137 140 128 128 131 104 104 107 133 133 136 66 66 69 133 133 136 66 66 69 138 138 141 71 71 74 138 138 141 71 71 74 138 138 141 71 71 74 105 105 108 76 76 79 105 105 108 114 114 117 105 105 108 76 76 79 110 110 113
54 54 57 132 132 135 76 76 79 58 58 61 98 98 101 85 85 88 125 125 128 107 107 110 51 51 54 134 134 137 78 78 81 156 156 159 100 100 103 49 49 52 127 127 130 71 71 74 53 53 56 98 98 101 80 80 83 120 120 123 64 64 67 46 46 49 91 91 94 73 73 76 113 113 116 95 95 98 44 44 47 160 160 163 66 66 69 106 106 109 93 93 96 37 37 40 115 115 118 59 59 62 142 142 145 86 86 89 68 68 71 108 108 111 52 52 55 135 135 138 79 79 82 61 61 64 101 101 104 126 126 129 128 128 131 110 110 113 54 54 57 137 137 140 81 81 84 25 25 28 103 103 106 52 52 55 130 130 133 74 74 77 56 56 59 96 96 99 83 83 86 123 123 126 67 67 70 87 87 90 94 94 97 76 76 79 116 116 119 98 98 101
102 102 105 57 57 60 50 50 53 101 101 104 99 99 102 54 54 57 143 143 146 103 103 106 96 96 99 51 51 54 140 140 143 100 100 103 55 55 58 48 48 51 104 104 107 97 97 100 52 52 55 146 146 149 101 101 104 56 56 59 49 49 52 105 105 108 98 98 101 53 53 56 51 51 54 102 102 105 133 133 136 50 50 53 144 144 147 99 99 102 54 54 57 52 52 55 103 103 106 96 96 99 56 56 59 145 145 148 100 100 103 93 93 96 53 53 56 104 104 107 97 97 100 57 57 60 88 88 91 101 101 104 94 94 97 54 54 57 143 143 146 98 98 101 58 58 61 51 51 54 102 102 105 100 100 103 55 55 58 144 144 147 99 99 102 97 97 100 52 52 55 103 103 106 139 139 142 56 56 59 49 49 52 100 100 103 98 98 101 53 53 56
112 112 115 116 116 119 82 82 85 91 91 94 57 57 60 61 61 64 128 128 131 132 132 135 98 98 101 145 145 148 73 73 76 39 39 42 48 48 51 110 110 113 114 114 117 85 85 88 89 89 92 60 60 63 64 64 67 126 126 129 97 97 100 101 101 104 67 67 70 76 76 79 42 42 45 180 180 183 113 113 116 117 117 120 83 83 86 54 54 57 58 58 61 120 120 123 129 129 132 95 95 98 104 104 107 70 70 73 74 74 77 45 45 48 107 107 110 111 111 114 82 82 85 124 124 127 52 52 55 61 61 64 123 123 126 127 127 130 98 98 101 102 102 105 68 68 71 39 39 42 139 139 142 110 110 113 114 114 117 80 80 83 89 89 92 55 55 58 59 59 62 164 164 167 92 92 95 96 96 99 67 67 70 71 71 74 37 37 40 142 142 145
89 89 92 41 41 44 56 56 59 38 38 41 53 53 56 35 35 38 146 146 149 123 123 126 206 206 209 120 120 123 102 102 105 117 117 120 94 94 97 114 114 117 91 91 94 111 111 114 113 113 116 108 108 111 85 85 88 62 62 65 82 82 85 59 59 62 79 79 82 56 56 59 134 134 137 53 53 56 68 68 71 50 50 53 65 65 68 42 42 45 24 24 27 135 135 138 142 142 145 132 132 135 114 114 117 129 129 132 106 106 109 126 126 129 103 103 106 85 85 88 163 163 166 77 77 80 97 97 100 74 74 77 94 94 97 71 71 74 86 86 89 68 68 71 70 70 73 65 65 68 42 42 45 62 62 65 39 39 42 54 54 57 36 36 39 147 147 150 192 192 195 106 106 109 121 121 124 103 103 106 118 118 121 100 100 103 115 115 118 92 92 95
74 74 77 100 100 103 88 88 91 119 119 122 107 107 110 138 138 141 126 126 129 99 99 102 49 49 52 80 80 83 68 68 71 61 61 64 87 87 90 80 80 83 106 106 109 99 99 102 125 125 128 118 118 121 144 144 147 132 132 135 29 29 32 55 55 58 48 48 51 112 112 115 67 67 70 93 93 96 86 86 89 112 112 115 105 105 108 93 93 96 124 124 127 112 112 115 47 47 50 35 35 38 66 66 69 54 54 57 80 80 83 73 73 76 61 61 64 130 130 133 80 80 83 111 111 114 99 99 102 130 130 133 118 118 121 149 149 152 41 41 44 72 72 75 60 60 63 53 53 56 79 79 82 72 72 75 98 98 101 86 86 89 117 117 120 143 143 146 136 136 139 124 124 127 117 117 120 47 47 50 40 40 43 66 66 69 59 59 62 85 85 88
122 122 125 25 25 28 67 67 70 66 66 69 108 108 111 107 107 110 91 91 94 52 52 55 94 94 97 93 93 96 97 97 100 134 134 137 42 42 45 79 79 82 83 83 86 120 120 123 124 124 127 70 70 73 69 69 72 73 73 76 110 110 113 114 114 117 93 93 96 59 59 62 96 96 99 100 100 103 137 137 140 45 45 48 82 82 85 86 86 89 85 85 88 127 127 130 30 30 33 72 72 75 76 76 79 113 113 116 117 117 120 58 58 61 100 100 103 61 61 64 103 103 106 102 102 105 48 48 51 47 47 50 89 89 92 88 88 91 130 130 133 129 129 132 37 37 40 74 74 77 78 78 81 120 120 123 119 119 122 65 65 68 102 102 105 106 106 109 105 105 108 109 109 112 50 50 53 54 54 57 91 91 94 95 95 98 132 132 135 40 40 43
36 36 39 84 84 87 99 99 102 51 51 54 66 66 69 152 152 155 33 33 36 86 86 89 96 96 99 149 149 152 63 63 66 78 78 81 131 131 134 45 45 48 98 98 101 108 108 111 65 65 68 80 80 83 128 128 131 47 47 50 57 57 60 148 148 151 120 120 123 77 77 80 92 92 95 140 140 143 59 59 62 107 107 110 122 122 125 41 41 44 89 89 92 104 104 107 56 56 59 71 71 74 124 124 127 38 38 41 91 91 94 139 139 142 116 116 119 68 68 71 83 83 86 136 136 139 50 50 53 103 103 106 113 113 116 70 70 73 85 85 88 133 133 136 52 52 55 62 62 65 115 115 118 34 34 37 82 82 85 135 135 138 145 145 148 64 64 67 112 112 115 127 127 130 46 46 49 94 94 97 109 109 112 61 61 64 76 76 79 129 129 132
84 84 87 105 105 108 73 73 76 94 94 97 100 100 103 88 88 91 147 147 150 77 77 80 141 141 144 66 66 69 92 92 95 60 60 63 81 81 84 49 49 52 75 75 78 134 134 137 64 64 67 128 128 131 53 53 56 79 79 82 80 80 83 68 68 71 132 132 135 57 57 60 121 121 124 51 51 54 110 110 113 40 40 43 104 104 107 125 125 128 55 55 58 119 119 122 44 44 47 108 108 111 38 38 41 97 97 100 161 161 164 86 86 89 112 112 115 42 42 45 101 101 104 31 31 34 95 95 98 116 116 119 84 84 87 110 110 113 73 73 76 99 99 102 29 29 32 88 88 91 114 114 117 82 82 85 141 141 144 71 71 74 92 92 95 60 60 63 86 86 89 107 107 110 75 75 78 101 101 104 64 64 67 90 90 93 58 58 61 79 79 82
94 94 97 68 68 71 105 105 108 122 122 125 116 116 119 95 95 98 36 36 39 106 106 109 47 47 50 122 122 125 63 63 66 95 95 98 74 74 77 111 111 114 85 85 88 122 122 125 101 101 104 42 42 45 112 112 115 91 91 94 90 90 93 64 64 67 101 101 104 80 80 83 112 112 115 91 91 94 128 128 131 107 107 110 43 43 46 80 80 83 59 59 62 91 91 94 70 70 73 107 107 110 86 86 89 156 156 159 97 97 100 38 38 41 70 70 73 49 49 52 86 86 89 60 60 63 97 97 100 76 76 79 113 113 116 87 87 90 124 124 127 103 103 106 135 135 138 76 76 79 55 55 58 130 130 133 66 66 69 103 103 106 82 82 85 114 114 117 93 93 96 130 130 133 66 66 69 45 45 48 82 82 85 61 61 64 93 93 96 72 72 75
46 46 49 89 89 92 117 117 120 31 31 34 117 117 120 64 64 67 54 54 57 102 102 105 92 92 95 39 39 42 87 87 90 77 77 80 29 29 32 110 110 113 62 62 65 52 52 55 100 100 103 90 90 93 171 171 174 85 85 88 75 75 78 27 27 30 108 108 111 60 60 63 50 50 53 98 98 101 83 83 86 131 131 134 121 121 124 73 73 76 116 116 119 106 106 109 58 58 61 144 144 147 134 134 137 81 81 84 129 129 132 119 119 122 71 71 74 114 114 117 104 104 107 56 56 59 142 142 145 89 89 92 79 79 82 127 127 130 117 117 120 64 64 67 112 112 115 102 102 105 92 92 95 140 140 143 87 87 90 77 77 80 125 125 128 115 115 118 62 62 65 110 110 113 100 100 103 52 52 55 133 133 136 85 85 88 75 75 78 123 123 126
56 56 59 90 90 93 111 111 114 112 112 115 75 75 78 76 76 79 34 34 37 131 131 134 94 94 97 95 95 98 58 58 61 117 117 120 113 113 116 76 76 79 77 77 80 40 40 43 137 137 140 138 138 141 96 96 99 59 59 62 118 118 121 119 119 122 82 82 85 78 78 81 41 41 44 138 138 141 101 101 104 102 102 105 65 65 68 23 23 26 120 120 123 83 83 86 84 84 87 85 85 88 144 144 147 102 102 105 103 103 106 66 66 69 29 29 32 126 126 129 84 84 87 85 85 88 48 48 51 145 145 148 108 108 111 109 109 112 67 67 70 68 68 71 127 127 130 128 128 131 91 91 94 54 54 57 50 50 53 109 109 112 110 110 113 73 73 76 74 74 77 128 128 131 91 91 94 92 92 95 55 55 58 56 56 59 115 115 118 111 111 114
167 167 170 73 73 76 85 85 88 59 59 62 71 71 74 45 45 48 57 57 60 127 127 130 164 164 167 108 108 111 82 82 85 94 94 97 68 68 71 80 80 83 54 54 57 66 66 69 103 103 106 148 148 151 117 117 120 91 91 94 103 103 106 77 77 80 89 89 92 63 63 66 100 100 103 49 49 52 56 56 59 126 126 129 138 138 141 112 112 115 86 86 89 98 98 101 135 135 138 84 84 87 58 58 61 65 65 68 39 39 42 147 147 150 121 121 124 95 95 98 132 132 135 81 81 84 93 93 96 62 62 65 74 74 77 48 48 51 60 60 63 130 130 133 167 167 170 116 116 119 90 90 93 102 102 105 71 71 74 83 83 86 57 57 60 69 69 72 68 68 71 113 113 116 125 125 128 99 99 102 106 106 109 80 80 83 92 92 95 66 66 69
114 114 117 132 132 135 117 117 120 140 140 143 29 29 32 52 52 55 37 37 40 60 60 63 45 45 48 68 68 71 53 53 56 38 38 41 61 61 64 46 46 49 69 69 72 92 92 95 77 77 80 62 62 65 80 80 83 65 65 68 50 50 53 73 73 76 58 58 61 81 81 84 66 66 69 89 89 92 74 74 77 97 97 100 82 82 85 67 67 70 90 90 93 113 113 116 98 98 101 83 83 86 106 106 109 86 86 89 109 109 112 94 94 97 79 79 82 102 102 105 87 87 90 110 110 113 95 95 98 118 118 121 103 103 106 126 126 129 111 111 114 172 172 175 119 119 122 104 104 107 127 127 130 112 112 115 130 130 133 115 115 118 138 138 141 123 123 126 146 146 149 131 131 134 116 116 119 139 139 142 28 28 31 51 51 54 36 36 39 97 97 100
66 66 69 62 62 65 96 96 99 92 92 95 126 126 129 122 122 125 60 60 63 56 56 59 90 90 93 86 86 89 82 82 85 116 116 119 112 112 115 50 50 53 84 84 87 80 80 83 76 76 79 110 110 113 106 106 109 102 102 105 136 136 139 36 36 39 70 70 73 66 66 69 100 100 103 96 96 99 130 130 133 126 126 129 64 64 67 60 60 63 94 94 97 90 90 93 86 86 89 120 120 123 116 116 119 54 54 57 50 50 53 84 84 87 80 80 83 76 76 79 110 110 113 106 106 109 140 140 143 40 40 43 74 74 77 70 70 73 142 142 145 100 100 103 96 96 99 130 130 133 30 30 33 64 64 67 60 60 63 94 94 97 90 90 93 124 124 127 120 120 123 116 116 119 54 54 57 50 50 53 84 84 87 80 80 83 152 152 155 110 110 113
76 76 79 121 121 124 32 32 35 77 77 80 84 84 87 129 129 132 40 40 43 85 85 88 92 92 95 137 137 140 48 48 51 55 55 58 100 100 103 145 145 148 56 56 59 63 63 66 108 108 111 120 120 123 69 69 72 76 76 79 83 83 86 128 128 131 39 39 42 84 84 87 91 91 94 136 136 139 47 47 50 92 92 95 99 99 102 144 144 147 55 55 58 62 62 65 107 107 110 114 114 117 68 68 71 75 75 78 120 120 123 127 127 130 38 38 41 83 83 86 90 90 93 135 135 138 46 46 49 91 91 94 98 98 101 181 181 184 54 54 57 99 99 102 106 106 109 113 113 116 62 62 65 74 74 77 119 119 122 126 126 129 75 75 78 82 82 85 127 127 130 134 134 137 45 45 48 90 90 93 97 97 100 180 180 183 53 53 56 98 98 101
124 124 127 46 46 49 102 102 105 120 120 123 80 80 83 98 98 101 58 58 61 76 76 79 132 132 135 59 59 62 77 77 80 133 133 136 93 93 96 111 111 114 33 33 36 89 89 92 107 107 110 72 72 75 90 90 93 108 108 111 68 68 71 86 86 89 46 46 49 64 64 67 120 120 123 42 42 45 103 103 106 121 121 124 119 119 122 99 99 102 117 117 120 77 77 80 95 95 98 55 55 58 78 78 81 134 134 137 56 56 59 112 112 115 130 130 133 52 52 55 108 108 111 30 30 33 86 86 89 109 109 112 107 107 110 87 87 90 143 143 146 65 65 68 83 83 86 43 43 46 61 61 64 122 122 125 44 44 47 100 100 103 118 118 121 78 78 81 96 96 99 114 114 117 74 74 77 92 92 95 95 95 98 75 75 78 131 131 134 53 53 56
38 38 41 105 105 108 38 38 41 105 105 108 38 38 41 105 105 108 43 43 46 110 110 113 43 43 46 110 110 113 43 43 46 110 110 113 48 48 51 77 77 80 144 144 147 77 77 80 144 144 147 82 82 85 149 149 152 82 82 85 111 111 114 82 82 85 111 111 114 87 87 90 116 116 119 87 87 90 116 116 119 125 125 128 116 116 119 54 54 57 121 121 124 54 54 57 121 121 124 54 54 57 126 126 129 59 59 62 126 126 129 59 59 62 88 88 91 59 59 62 93 93 96 64 64 67 93 93 96 102 102 105 93 93 96 64 64 67 98 98 101 69 69 72 98 98 101 31 31 34 98 98 101 36 36 39 103 103 106 36 36 39 103 103 106 36 36 39 103 103 106 41 41 44 70 70 73 175 175 178 70 70 73 137 137 140 70 70 73 142 142 145
86 86 89 30 30 33 108 108 111 52 52 55 130 130 133 79 79 82 61 61 64 101 101 104 83 83 86 128 128 131 110 110 113 54 54 57 94 94 97 81 81 84 121 121 124 103 103 106 47 47 50 130 130 133 74 74 77 114 114 117 96 96 99 40 40 43 123 123 126 67 67 70 145 145 148 89 89 92 114 114 117 116 116 119 98 98 101 42 42 45 87 87 90 69 69 72 109 109 112 91 91 94 40 40 43 118 118 121 62 62 65 140 140 143 84 84 87 33 33 36 111 111 114 55 55 58 171 171 174 82 82 85 64 64 67 104 104 107 86 86 89 131 131 134 75 75 78 57 57 60 97 97 100 84 84 87 124 124 127 106 106 109 50 50 53 128 128 131 77 77 80 21 21 24 137 137 140 43 43 46 126 126 129 70 70 73 52 52 55 92 92 95
96 96 99 89 89 92 44 44 47 133 133 136 93 93 96 86 86 89 41 41 44 135 135 138 90 90 93 121 121 124 134 134 137 94 94 97 87 87 90 42 42 45 136 136 139 91 91 94 84 84 87 44 44 47 133 133 136 88 88 91 43 43 46 137 137 140 92 92 95 85 85 88 45 45 48 172 172 175 89 89 92 82 82 85 42 42 45 93 93 96 86 86 89 46 46 49 135 135 138 90 90 93 88 88 91 43 43 46 132 132 135 87 87 90 47 47 50 136 136 139 91 91 94 127 127 130 44 44 47 133 133 136 88 88 91 86 86 89 41 41 44 130 130 133 90 90 93 45 45 48 134 134 137 94 94 97 87 87 90 42 42 45 131 131 134 91 91 94 84 84 87 173 173 176 95 95 98 88 88 91 43 43 46 132 132 135 92 92 95 85 85 88
73 73 76 110 110 113 114 114 117 85 85 88 89 89 92 55 55 58 64 64 67 126 126 129 193 193 196 101 101 104 67 67 70 71 71 74 42 42 45 142 142 145 108 108 111 117 117 120 108 108 111 92 92 95 58 58 61 24 24 27 129 129 132 95 95 98 99 99 102 70 70 73 137 137 140 40 40 43 145 145 148 111 111 114 115 115 118 86 86 89 52 52 55 56 56 59 148 148 151 127 127 130 98 98 101 102 102 105 68 68 71 77 77 80 43 43 46 105 105 108 177 177 180 80 80 83 84 84 87 55 55 58 59 59 62 121 121 124 130 130 133 96 96 99 87 87 90 71 71 74 37 37 40 142 142 145 108 108 111 112 112 115 83 83 86 87 87 90 116 116 119 24 24 27 124 124 127 90 90 93 99 99 102 65 65 68 69 69 72 40 40 43
58 58 61 73 73 76 50 50 53 70 70 73 47 47 50 67 67 70 44 44 47 97 97 100 41 41 44 152 152 155 134 134 137 111 111 114 126 126 129 108 108 111 123 123 126 105 105 108 120 120 123 102 102 105 117 117 120 94 94 97 76 76 79 91 91 94 73 73 76 126 126 129 65 65 68 85 85 88 62 62 65 82 82 85 59 59 62 36 36 39 56 56 59 33 33 36 53 53 56 30 30 33 146 146 149 123 123 126 138 138 141 120 120 123 97 97 100 155 155 158 94 94 97 109 109 112 91 91 94 106 106 109 88 88 91 103 103 106 80 80 83 100 100 103 77 77 80 59 59 62 74 74 77 56 56 59 71 71 74 48 48 51 68 68 71 83 83 86 65 65 68 42 42 45 115 115 118 135 135 138 112 112 115 132 132 135 109 109 112 124 124 127
106 106 109 94 94 97 120 120 123 113 113 116 139 139 142 36 36 39 100 100 103 55 55 58 81 81 84 74 74 77 62 62 65 93 93 96 81 81 84 112 112 115 100 100 103 131 131 134 119 119 122 150 150 153 42 42 45 30 30 33 61 61 64 49 49 52 118 118 121 68 68 71 99 99 102 87 87 90 118 118 121 106 106 109 137 137 140 125 125 128 118 118 121 48 48 51 41 41 44 67 67 70 60 60 63 86 86 89 74 74 77 105 105 108 131 131 134 86 86 89 112 112 115 105 105 108 131 131 134 124 124 127 54 54 57 47 47 50 73 73 76 66 66 69 54 54 57 85 85 88 73 73 76 104 104 107 92 92 95 118 118 121 149 149 152 137 137 140 130 130 133 22 22 25 53 53 56 41 41 44 72 72 75 60 60 63 91 91 94 79 79 82
116 116 119 57 57 60 61 61 64 98 98 101 102 102 105 177 177 180 47 47 50 84 84 87 88 88 91 125 125 128 129 129 132 32 32 35 74 74 77 73 73 76 115 115 118 114 114 117 60 60 63 64 64 67 101 101 104 105 105 108 104 104 107 88 88 91 49 49 52 91 91 94 90 90 93 132 132 135 35 35 38 77 77 80 76 76 79 80 80 83 117 117 120 121 121 124 62 62 65 66 66 69 108 108 111 107 107 110 149 149 152 90 90 93 56 56 59 93 93 96 97 97 100 134 134 137 42 42 45 79 79 82 83 83 86 120 120 123 124 124 127 65 65 68 69 69 72 68 68 71 110 110 113 114 114 117 55 55 58 97 97 100 96 96 99 100 100 103 137 137 140 45 45 48 44 44 47 86 86 89 85 85 88 127 127 130 126 126 129 72 72 75
68 68 71 78 78 81 131 131 134 45 45 48 136 136 139 108 108 111 65 65 68 80 80 83 128 128 131 47 47 50 57 57 60 110 110 113 29 29 32 77 77 80 92 92 95 140 140 143 59 59 62 112 112 115 122 122 125 41 41 44 127 127 130 104 104 107 56 56 59 71 71 74 124 124 127 38 38 41 91 91 94 101 101 104 58 58 61 73 73 76 83 83 86 136 136 139 50 50 53 103 103 106 118 118 121 70 70 73 123 123 126 133 133 136 52 52 55 62 62 65 115 115 118 34 34 37 82 82 85 97 97 100 145 145 148 64 64 67 117 117 120 127 127 130 46 46 49 94 94 97 109 109 112 66 66 69 114 114 117 129 129 132 43 43 46 96 96 99 106 106 109 25 25 28 78 78 81 88 88 91 141 141 144 55 55 58 108 108 111 123 123 126
78 78 81 137 137 140 67 67 70 164 164 167 56 56 59 120 120 123 45 45 48 109 109 112 39 39 42 98 98 101 124 124 127 54 54 57 113 113 116 43 43 46 107 107 110 32 32 35 96 96 99 122 122 125 85 85 88 149 149 152 36 36 39 100 100 103 30 30 33 89 89 92 115 115 118 83 83 86 104 104 107 72 72 75 98 98 101 23 23 26 87 87 90 113 113 116 76 76 79 102 102 105 70 70 73 129 129 132 59 59 62 80 80 83 106 106 109 74 74 77 95 95 98 63 63 66 89 89 92 52 52 55 78 78 81 142 142 145 67 67 70 131 131 134 61 61 64 82 82 85 50 50 53 114 114 117 135 135 138 65 65 68 124 124 127 54 54 57 118 118 121 43 43 46 69 69 72 133 133 136 58 58 61 122 122 125 52 52 55 111 111 114
126 126 129 62 62 65 175 175 178 78 78 81 52 52 55 89 89 92 68 68 71 100 100 103 79 79 82 116 116 119 57 57 60 127 127 130 68 68 71 47 47 50 79 79 82 58 58 61 95 95 98 74 74 77 144 144 147 47 47 50 122 122 125 58 58 61 133 133 136 74 74 77 144 144 147 85 85 88 64 64 67 101 101 104 75 75 78 112 112 115 53 53 56 123 123 126 64 64 67 139 139 142 118 118 121 54 54 57 91 91 94 70 70 73 102 102 105 43 43 46 118 118 121 54 54 57 129 129 132 70 70 73 145 145 148 81 81 84 60 60 63 97 97 100 33 33 36 108 108 111 87 87 90 124 124 127 60 60 63 135 135 138 76 76 79 146 146 149 87 87 90 28 28 31 98 98 101 39 39 42 114 114 117 55 55 58 125 125 128 66 66 69
40 40 43 159 159 162 73 73 76 63 63 66 111 111 114 96 96 99 48 48 51 134 134 137 86 86 89 71 71 74 119 119 122 71 71 74 61 61 64 104 104 107 94 94 97 46 46 49 132 132 135 122 122 125 69 69 72 117 117 120 69 69 72 59 59 62 102 102 105 92 92 95 44 44 47 130 130 133 77 77 80 67 67 70 115 115 118 67 67 70 52 52 55 100 100 103 90 90 93 80 80 83 128 128 131 75 75 78 65 65 68 113 113 116 65 65 68 50 50 53 98 98 101 88 88 91 40 40 43 121 121 124 73 73 76 63 63 66 111 111 114 96 96 99 48 48 51 134 134 137 86 86 89 38 38 41 119 119 122 71 71 74 61 61 64 109 109 112 94 94 97 46 46 49 94 94 97 84 84 87 31 31 34 117 117 120 69 69 72 59 59 62
151 151 154 46 46 49 47 47 50 106 106 109 107 107 110 70 70 73 66 66 69 125 125 128 151 151 154 89 89 92 52 52 55 53 53 56 107 107 110 108 108 111 71 71 74 72 72 75 98 98 101 132 132 135 90 90 93 53 53 56 54 54 57 113 113 116 114 114 117 72 72 75 98 98 101 36 36 39 133 133 136 96 96 99 97 97 100 55 55 58 114 114 117 115 115 118 141 141 144 79 79 82 42 42 45 134 134 137 97 97 100 98 98 101 61 61 64 24 24 27 141 141 144 79 79 82 80 80 83 43 43 46 140 140 143 103 103 106 99 99 102 62 62 65 88 88 91 122 122 125 85 85 88 86 86 89 44 44 47 141 141 144 104 104 107 105 105 108 93 93 96 26 26 29 123 123 126 86 86 89 87 87 90 50 50 53 51 51 54 105 105 108
98 98 101 105 105 108 79 79 82 91 91 94 65 65 68 77 77 80 51 51 54 63 63 66 37 37 40 140 140 143 114 114 117 88 88 91 100 100 103 74 74 77 86 86 89 98 98 101 72 72 75 46 46 49 149 149 152 123 123 126 97 97 100 109 109 112 83 83 86 95 95 98 69 69 72 81 81 84 50 50 53 62 62 65 132 132 135 106 106 109 118 118 121 130 130 133 104 104 107 78 78 81 90 90 93 59 59 62 71 71 74 45 45 48 115 115 118 127 127 130 101 101 104 113 113 116 87 87 90 94 94 97 68 68 71 80 80 83 54 54 57 104 104 107 136 136 139 110 110 113 122 122 125 96 96 99 103 103 106 77 77 80 89 89 92 63 63 66 75 75 78 49 49 52 23 23 26 131 131 134 100 100 103 112 112 115 86 86 89 136 136 139
50 50 53 30 30 33 53 53 56 38 38 41 61 61 64 46 46 49 69 69 72 54 54 57 77 77 80 62 62 65 47 47 50 70 70 73 55 55 58 78 78 81 101 101 104 86 86 89 71 71 74 94 94 97 74 74 77 59 59 62 82 82 85 67 67 70 90 90 93 75 75 78 98 98 101 83 83 86 106 106 109 91 91 94 114 114 117 99 99 102 122 122 125 107 107 110 92 92 95 115 115 118 100 100 103 118 118 121 103 103 106 126 126 129 111 111 114 96 96 99 119 119 122 104 104 107 127 127 130 112 112 115 135 135 138 120 120 123 181 181 184 128 128 131 113 113 116 136 136 139 121 121 124 48 48 51 124 124 127 51 51 54 36 36 39 59 59 62 44 44 47 29 29 32 52 52 55 37 37 40 60 60 63 45 45 48 106 106 109 53 53 56
60 60 63 94 94 97 90 90 93 124 124 127 120 120 123 58 58 61 54 54 57 88 88 91 84 84 87 118 118 121 114 114 117 110 110 113 48 48 51 82 82 85 78 78 81 74 74 77 108 108 111 104 104 107 138 138 141 134 134 137 34 34 37 68 68 71 64 64 67 98 98 101 94 94 97 128 128 131 124 124 127 62 62 65 58 58 61 92 92 95 88 88 91 84 84 87 118 118 121 114 114 117 52 52 55 48 48 51 82 82 85 78 78 81 74 74 77 108 108 111 104 104 107 138 138 141 38 38 41 72 72 75 68 68 71 140 140 143 98 98 101 132 132 135 128 128 131 28 28 31 62 62 65 58 58 61 92 92 95 88 88 91 122 122 125 118 118 121 152 152 155 52 52 55 48 48 51 82 82 85 78 78 81 150 150 153 108 108 111 142 142 145
108 108 111 115 115 118 64 64 67 71 71 74 116 116 119 123 123 126 72 72 75 79 79 82 124 124 127 131 131 134 42 42 45 87 87 90 132 132 135 139 139 142 50 50 53 95 95 98 102 102 105 56 56 59 63 63 66 70 70 73 115 115 118 26 26 29 71 71 74 78 78 81 123 123 126 34 34 37 79 79 82 86 86 89 169 169 172 42 42 45 49 49 52 94 94 97 101 101 104 50 50 53 62 62 65 107 107 110 114 114 117 63 63 66 70 70 73 77 77 80 122 122 125 33 33 36 78 78 81 85 85 88 168 168 171 41 41 44 86 86 89 93 93 96 100 100 103 49 49 52 56 56 59 106 106 109 113 113 116 62 62 65 69 69 72 114 114 117 121 121 124 32 32 35 77 77 80 84 84 87 167 167 170 40 40 43 85 85 88 92 92 95
22 22 25 78 78 81 96 96 99 56 56 59 74 74 77 130 130 133 52 52 55 108 108 111 126 126 129 91 91 94 109 109 112 69 69 72 87 87 90 105 105 108 65 65 68 83 83 86 139 139 142 66 66 69 122 122 125 44 44 47 62 62 65 118 118 121 40 40 43 96 96 99 114 114 117 74 74 77 97 97 100 95 95 98 75 75 78 93 93 96 53 53 56 71 71 74 127 127 130 49 49 52 110 110 113 128 128 131 88 88 91 106 106 109 28 28 31 84 84 87 102 102 105 62 62 65 80 80 83 179 179 182 63 63 66 119 119 122 41 41 44 97 97 100 115 115 118 37 37 40 93 93 96 116 116 119 76 76 79 94 94 97 54 54 57 72 72 75 128 128 131 50 50 53 68 68 71 162 162 165 51 51 54 107 107 110 125 125 128 85 85 88
70 70 73 99 99 102 70 70 73 99 99 102 70 70 73 99 99 102 75 75 78 104 104 107 75 75 78 104 104 107 75 75 78 104 104 107 42 42 45 109 109 112 42 42 45 109 109 112 42 42 45 114 114 117 47 47 50 76 76 79 47 47 50 76 76 79 47 47 50 81 81 84 52 52 55 81 81 84 186 186 189 81 81 84 148 148 151 86 86 89 115 115 118 86 86 89 115 115 118 86 86 89 120 120 123 91 91 94 120 120 123 91 91 94 120 120 123 53 53 56 125 125 128 58 58 61 163 163 166 58 58 61 125 125 128 58 58 61 130 130 133 63 63 66 92 92 95 63 63 66 92 92 95 68 68 71 97 97 100 68 68 71 97 97 100 68 68 71 97 97 100 35 35 38 140 140 143 35 35 38 102 102 105 35 35 38 102 102 105 40 40 43
80 80 83 62 62 65 102 102 105 84 84 87 124 124 127 111 111 114 55 55 58 133 133 136 77 77 80 102 102 105 104 104 107 48 48 51 126 126 129 75 75 78 57 57 60 97 97 100 79 79 82 124 124 127 106 106 109 50 50 53 90 90 93 72 72 75 117 117 120 99 99 102 43 43 46 159 159 162 70 70 73 148 148 151 92 92 95 36 36 39 119 119 122 63 63 66 141 141 144 85 85 88 72 72 75 112 112 115 94 94 97 38 38 41 78 78 81 65 65 68 105 105 108 125 125 128 31 31 34 114 114 117 58 58 61 136 136 139 80 80 83 67 67 70 107 107 110 51 51 54 129 129 132 78 78 81 60 60 63 100 100 103 82 82 85 122 122 125 109 109 112 91 91 94 93 93 96 75 75 78 120 120 123 102 102 105 46 46 49 124 124 127
153 153 156 83 83 86 76 76 79 31 31 34 125 125 128 80 80 83 73 73 76 129 129 132 185 185 188 77 77 80 32 32 35 126 126 129 81 81 84 74 74 77 34 34 37 123 123 126 103 103 106 76 76 79 127 127 130 82 82 85 75 75 78 35 35 38 124 124 127 79 79 82 140 140 143 128 128 131 121 121 124 76 76 79 74 74 77 125 125 128 80 80 83 78 78 81 58 58 61 122 122 125 82 82 85 75 75 78 126 126 129 119 119 122 79 79 82 34 34 37 186 186 189 83 83 86 76 76 79 31 31 34 120 120 123 80 80 83 73 73 76 124 124 127 109 109 112 77 77 80 32 32 35 126 126 129 81 81 84 74 74 77 125 125 128 123 123 126 141 141 144 33 33 36 127 127 130 82 82 85 75 75 78 30 30 33 124 124 127 79 79 82
42 42 45 46 46 49 108 108 111 117 117 120 83 83 86 87 87 90 58 58 61 100 100 103 124 124 127 133 133 136 99 99 102 65 65 68 74 74 77 40 40 43 140 140 143 111 111 114 115 115 118 86 86 89 90 90 93 56 56 59 27 27 30 127 127 130 93 93 96 140 140 143 68 68 71 72 72 75 43 43 46 143 143 146 109 109 112 80 80 83 84 84 87 50 50 53 59 59 62 121 121 124 130 130 133 96 96 99 100 100 103 71 71 74 37 37 40 175 175 178 108 108 111 112 112 115 78 78 81 87 87 90 53 53 56 57 57 60 124 124 127 128 128 131 94 94 97 65 65 68 69 69 72 40 40 43 140 140 143 106 106 109 115 115 118 119 119 122 85 85 88 56 56 59 118 118 121 122 122 125 93 93 96 97 97 100 63 63 66 72 72 75
90 90 93 67 67 70 82 82 85 64 64 67 79 79 82 61 61 64 114 114 117 53 53 56 73 73 76 50 50 53 32 32 35 47 47 50 120 120 123 140 140 143 117 117 120 137 137 140 114 114 117 134 134 137 111 111 114 88 88 91 108 108 111 85 85 88 143 143 146 82 82 85 97 97 100 79 79 82 94 94 97 76 76 79 91 91 94 68 68 71 50 50 53 65 65 68 47 47 50 62 62 65 44 44 47 59 59 62 36 36 39 152 152 155 167 167 170 111 111 114 126 126 129 103 103 106 123 123 126 100 100 103 120 120 123 97 97 100 112 112 115 94 94 97 71 71 74 91 91 94 68 68 71 88 88 91 65 65 68 80 80 83 100 100 103 77 77 80 59 59 62 36 36 39 51 51 54 33 33 36 48 48 51 30 30 33 141 141 144 118 118 121
100 100 103 126 126 129 114 114 117 49 49 52 37 37 40 106 106 109 56 56 59 87 87 90 75 75 78 106 106 109 94 94 97 87 87 90 113 113 116 106 106 109 132 132 135 125 125 128 55 55 58 48 48 51 74 74 77 62 62 65 55 55 58 119 119 122 74 74 77 100 100 103 93 93 96 119 119 122 112 112 115 138 138 141 131 131 134 23 23 26 54 54 57 42 42 45 73 73 76 61 61 64 92 92 95 80 80 83 106 106 109 137 137 140 87 87 90 118 118 121 106 106 109 137 137 140 29 29 32 60 60 63 48 48 51 79 79 82 67 67 70 98 98 101 86 86 89 79 79 82 105 105 108 98 98 101 124 124 127 150 150 153 143 143 146 131 131 134 66 66 69 54 54 57 47 47 50 73 73 76 66 66 69 92 92 95 85 85 88 111 111 114
52 52 55 51 51 54 93 93 96 92 92 95 172 172 175 37 37 40 79 79 82 78 78 81 120 120 123 119 119 122 27 27 30 64 64 67 68 68 71 105 105 108 109 109 112 146 146 149 54 54 57 96 96 99 95 95 98 99 99 102 174 174 177 44 44 47 81 81 84 85 85 88 122 122 125 126 126 129 67 67 70 71 71 74 108 108 111 112 112 115 111 111 114 57 57 60 56 56 59 98 98 101 102 102 105 139 139 142 85 85 88 84 84 87 88 88 91 87 87 90 129 129 132 32 32 35 74 74 77 73 73 76 115 115 118 114 114 117 60 60 63 59 59 62 63 63 66 100 100 103 104 104 107 50 50 53 87 87 90 91 91 94 90 90 93 132 132 135 131 131 134 39 39 42 76 76 79 80 80 83 117 117 120 121 121 124 62 62 65 66 66 69
62 62 65 110 110 113 29 29 32 115 115 118 92 92 95 140 140 143 59 59 62 112 112 115 122 122 125 79 79 82 89 89 92 104 104 107 61 61 64 71 71 74 124 124 127 38 38 41 91 91 94 106 106 109 58 58 61 111 111 114 83 83 86 136 136 139 50 50 53 103 103 106 118 118 121 70 70 73 85 85 88 133 133 136 52 52 55 67 67 70 115 115 118 34 34 37 82 82 85 97 97 100 54 54 57 102 102 105 117 117 120 127 127 130 46 46 49 94 94 97 109 109 112 66 66 69 76 76 79 129 129 132 43 43 46 96 96 99 111 111 114 63 63 66 78 78 81 88 88 91 45 45 48 98 98 101 108 108 111 123 123 126 75 75 78 90 90 93 138 138 141 57 57 60 72 72 75 120 120 123 39 39 42 87 87 90 102 102 105 59 59 62
110 110 113 35 35 38 137 137 140 120 120 123 88 88 91 114 114 117 77 77 80 103 103 106 71 71 74 92 92 95 22 22 25 86 86 89 107 107 110 75 75 78 101 101 104 64 64 67 90 90 93 58 58 61 117 117 120 105 105 108 68 68 71 94 94 97 62 62 65 83 83 86 51 51 54 77 77 80 136 136 139 66 66 69 130 130 133 55 55 58 81 81 84 49 49 52 70 70 73 134 134 137 102 102 105 123 123 126 53 53 56 112 112 115 42 42 45 68 68 71 127 127 130 57 57 60 121 121 124 46 46 49 110 110 113 40 40 43 99 99 102 125 125 128 55 55 58 114 114 117 82 82 85 108 108 111 33 33 36 97 97 100 118 118 121 86 86 89 112 112 115 37 37 40 101 101 104 31 31 34 90 90 93 116 116 119 84 84 87 105 105 108
24 24 27 132 132 135 35 35 38 110 110 113 46 46 49 121 121 124 62 62 65 132 132 135 73 73 76 148 148 151 89 89 92 25 25 28 100 100 103 41 41 44 111 111 114 52 52 55 127 127 130 106 106 109 138 138 141 79 79 82 116 116 119 90 90 93 31 31 34 106 106 109 42 42 45 117 117 120 58 58 61 133 133 136 69 69 72 106 106 109 85 85 88 117 117 120 96 96 99 75 75 78 112 112 115 48 48 51 123 123 126 64 64 67 96 96 99 75 75 78 112 112 115 86 86 89 123 123 126 102 102 105 43 43 46 113 113 116 54 54 57 129 129 132 65 65 68 140 140 143 81 81 84 118 118 121 92 92 95 33 33 36 108 108 111 44 44 47 119 119 122 60 60 63 92 92 95 71 71 74 108 108 111 87 87 90 119 119 122 98 98 101

